<svg xmlns="http://www.w3.org/2000/svg" width="308.464" height="306.083" viewBox="0 0 308.464 306.083"><path d="M175.782,34.514c-.508.037-2.379.156-4.158.265-14.362.878-28.946,4.515-46.109,11.5a126.936,126.936,0,0,0-21.807,11.207c-2.038,1.265-9.221,6.28-11.365,7.935-6.143,4.743-7.51,5.867-11.273,9.263a123.835,123.835,0,0,0-11.006,11.3c-.3.366-1.339,1.613-2.311,2.772S65.58,91.4,65.083,92.063s-1.247,1.617-1.668,2.125c-.671.811-3.092,4.082-6.885,9.3-5.087,7-11.089,17.466-13.639,23.776-2.345,5.8-3.111,7.868-4.795,12.936-5.72,17.217-7.478,29.492-7.239,50.544.223,19.558,2.113,29.294,9.919,51.1,7.279,20.328,24.574,46.009,39.9,59.249,10.808,9.334,24.063,18.009,35.13,22.993,14.1,6.351,36.294,13.2,48.419,14.953,21.653,3.124,42.031,1.4,64.127-5.44l4.158-1.287c18.786-5.821,28.7-10.59,42.782-20.588,13.486-9.572,22.08-18.188,33.185-33.269,15.74-21.375,27.3-48.87,29.728-70.708,2.267-20.381,1.065-36.911-4.242-58.4-5.161-20.891-16.947-44.183-30.3-59.885-.407-.478-1.321-1.56-2.033-2.405-10.145-12.044-18.949-19.511-34.651-29.387A158.293,158.293,0,0,0,226.51,40.31a240.929,240.929,0,0,0-34.374-5.452c-3.006-.274-14.122-.508-16.355-.345m11.195,3.865C226.354,41.025,249.652,49,277.8,69.465c24.131,17.543,44.866,49.437,52.659,81,5.2,21.053,6.339,36.581,4.146,56.458-3.359,30.444-24.25,69.835-48.59,91.617a134,134,0,0,1-44.952,27.051c-23.636,8.39-37.564,11.164-56.018,11.155-18.755-.009-32.141-2.681-55.282-11.033-24.025-8.672-45.082-23.074-59.252-40.525-16.7-20.563-26.8-40.85-32.952-66.16-4.957-20.4-4.28-48.8,1.666-69.948C45.436,127,53.072,112.718,69.621,92.248a146.993,146.993,0,0,1,58.758-43.154c22.473-8.813,39.787-11.98,58.6-10.716m-6.852,4.347c-24.531,1.736-38.047,4.435-54.027,10.791-19.16,7.619-39.886,22.974-53.651,39.749-14.912,18.171-22.592,33.005-29.566,57.1-6.111,21.118-6.655,46.474-1.445,67.361,4.651,18.645,11.123,34.028,19.957,47.428,13.469,20.432,25.531,32.249,46.29,45.347,16.773,10.583,40.712,18.922,59.91,20.868,8.289.84,27.493,1.011,34.617.308,18.271-1.8,41.2-8.868,55.657-17.143,21.313-12.2,35.511-26.186,52.875-52.079a123.359,123.359,0,0,0,20.036-57.388c.333-3.831.332-25.533,0-30.123-1.662-22.93-8.75-45.527-19.629-62.585C300.97,96.408,290.335,84.126,278.452,74.6c-16.177-12.964-30.208-20.348-48.985-25.782-12.4-3.587-38.765-6.845-49.343-6.1m3.511,2.291c0,.346-4.88,50.707-10.126,104.521-.411,4.214-.494,3.8.668,3.339a21.971,21.971,0,0,1,5.275-1.242,7.2,7.2,0,0,0,1.605-.255c.175-.108,4.1-81.823,5.005-104.132.071-1.771.181.474,2.547,52,1.75,38.144,2.428,51.663,2.594,51.765a7.2,7.2,0,0,0,1.605.255,21.97,21.97,0,0,1,5.275,1.242c1.162.458,1.079.874.668-3.339C187.507,33.845,188.507,44.754,189.18,44.754c.3,0,.554.039.554.086s.834,7.262,1.855,16.032c5.833,50.147,10.712,92.264,10.712,92.478,0,.135.271.382.6.55,4.9,2.488,12.92,9.522,17.6,15.439a11.009,11.009,0,0,0,1.9,2.122c.043-.176-7.134-33.007-25.125-114.928-1.333-6.075-2.37-11.1-2.3-11.168.288-.288,13.031,1.186,19.52,2.257C239.986,51.834,261.419,62.143,281.811,80c14.554,12.746,29.936,34.119,36.617,50.878a142.322,142.322,0,0,1,10.314,43.607c.335,4.475.337,27.345,0,30.955a121.046,121.046,0,0,1-21.793,59.035c-15.186,21.68-23.172,30.1-39.323,41.442-13.98,9.82-28.014,15.908-47.83,20.744-21.9,5.347-51.107,4.839-72.4-1.26-23.043-6.6-39.829-15.5-58.509-31.025-14.913-12.393-30.612-34.58-38.083-53.823-8.761-22.561-11.771-40.26-10.593-62.279.839-15.689,4.83-31.735,12.338-49.61,7.264-17.293,22.117-37.4,36.927-50,20.947-17.811,42.918-27.962,68.584-31.684,6.389-.927,19.168-2.232,19.416-1.983.053.053-1.114,5.612-2.595,12.352s-7.566,34.459-13.524,61.6c-11.939,54.373-11.878,54.082-10.963,52.577,2.99-4.917,13.507-14.49,18.964-17.261.331-.168.6-.416.6-.551s2.2-19.2,4.89-42.362,5.521-47.563,6.291-54.221,1.436-12.208,1.479-12.336c.158-.457,1.015-.274,1.015.216m-15.8,6.144c-.3.038-2.342.281-4.528.541-26.98,3.214-46.835,11.923-68.469,30.033-14.009,11.729-29.146,32.039-36,48.306-1.6,3.8-1.6,3.8,5.43,6.809,18.737,8.025,27.17,10.419,53.488,15.186,10.248,1.856,28.018,4.4,28.758,4.115.361-.139.541-.776,1.533-5.412.456-2.134,1.913-8.829,3.237-14.877,6.523-29.788,12-54.866,13.6-62.279.976-4.523,2.193-10.137,2.7-12.474.984-4.5,1.824-8.937,1.824-9.647,0-.445-.154-.475-1.571-.3m35.132.847c.363,2.136.2,1.365,11.53,54.379,3.717,17.394,5.671,26.543,7.317,34.281.66,3.1,1.653,7.741,2.208,10.312s1.009,5.029,1.009,5.463c0,1.714-.5,1.724,18.758-.359,30.729-3.324,41.829-5.807,66.331-14.845a42.8,42.8,0,0,1,4.5-1.494c.57,0,.545-.11-.88-3.787-6.22-16.046-20.524-37.245-33.108-49.066-14.551-13.669-28.32-22.354-44.862-28.3-1.689-.607-3.363-1.216-3.718-1.353-4.624-1.778-24.8-5.833-29.013-5.833-.1,0-.13.271-.074.6M142.389,62.264c-.075.39-.4.365-.487-.036a.227.227,0,0,1,.245-.287c.19,0,.281.121.242.323m85.749.185c-.075.39-.4.365-.487-.036a.226.226,0,0,1,.245-.287c.19,0,.281.121.242.323m-83.866.323c0,.152-.083.277-.185.277s-.185-.125-.185-.277.083-.277.185-.277.185.125.185.277m81.868.185c0,.152-.083.277-.185.277s-.185-.125-.185-.277.083-.277.185-.277.185.125.185.277m-81.4.474c.17.275-.027.425-.381.289-.164-.063-.245-.2-.182-.3a.307.307,0,0,1,.563.011m81.122.174c.063.1-.018.237-.182.3-.354.136-.551-.014-.381-.289a.307.307,0,0,1,.563-.011m-82.99,1.273c.056.091-.022.213-.174.272-.168.064-.276,0-.276-.165,0-.3.289-.367.45-.106m84.745.291c0,.164-.108.229-.276.165-.152-.058-.23-.18-.174-.272.161-.261.45-.193.45.106M150,66.883a3.848,3.848,0,0,0,2.4,3.093c.98.3.992.5.061,1a3.718,3.718,0,0,0-1.837,2.223c-.222,1.022-.292,1.028-.738.066a4.531,4.531,0,0,0-2.775-2.366l-1.046-.425,1.033-.489a4.356,4.356,0,0,0,2.26-2.457c.047-.229.129-.627.183-.885.122-.589.456-.415.456.237m-11.049,1.005c-.282.282-.491.074-.334-.334.092-.241.173-.264.337-.1s.164.267,0,.434m92.547.069c0,.3-.292.357-.462.081-.151-.244.07-.59.29-.454a.477.477,0,0,1,.172.372M120.8,73.132a.273.273,0,0,1-.277.266c-.278,0-.38-.39-.159-.611.173-.173.436.036.436.345m128.993.185a.273.273,0,0,1-.277.266c-.278,0-.38-.39-.159-.611.173-.173.436.036.436.345m-95.3,3.332.7.394-.654.386a1.742,1.742,0,0,0-.772.857c-.15.6-.324.6-.718,0a3.365,3.365,0,0,0-1.186-.882L151,77l.727-.347a1.92,1.92,0,0,0,1.023-1.04l.3-.692.376.67a3.293,3.293,0,0,0,1.077,1.064m-31.522.6c.041.12-.058.219-.219.219a.294.294,0,0,1-.293-.293c0-.326.4-.269.512.074m124.6.127a.278.278,0,0,1-.277.277c-.288,0-.367-.219-.154-.432s.431-.134.431.154M130.412,79.588c0,.358.112.453.6.511l.6.072-.6.148c-.534.131-.6.223-.623.818-.021.661-.023.663-.14.117a1.158,1.158,0,0,0-.672-.821l-.553-.268.462-.111a.614.614,0,0,0,.521-.614c.07-.6.4-.48.4.148m-9-.339c.167.166-.247.638-.451.512-.254-.157-.192-.634.083-.634a.6.6,0,0,1,.368.122m2.608.043c.056.091-.014.21-.156.264-.271.1-.479-.016-.479-.275,0-.207.505-.2.635.011m116.531.946.462.112-.553.268a1.158,1.158,0,0,0-.672.821c-.116.545-.118.543-.14-.117-.019-.6-.089-.687-.623-.818l-.6-.148.6-.072c.481-.057.6-.155.6-.491,0-.638.265-.768.37-.183a.69.69,0,0,0,.554.628m6.1-.772c0,.26-.208.38-.479.275-.142-.055-.213-.173-.156-.264.129-.209.635-.218.635-.011m2.587.092a.6.6,0,0,1-.122.368c-.166.167-.638-.247-.512-.451.157-.254.634-.192.634.083m-116.084,2.68a.36.36,0,0,0-.158.323c0,.2-.075.189-.335-.062s-.285-.354-.088-.473a.283.283,0,0,0,.12-.37c-.068-.121.043-.054.247.15s.3.4.213.432m14.811-.339c0,.205-.123.37-.277.37-.311,0-.323-.034-.165-.447s.443-.363.443.078m74.549.107c.158.413.146.447-.165.447-.154,0-.277-.164-.277-.37,0-.441.284-.491.443-.078m14.811-.118c-.059.1,0,.24.138.323.2.119.178.214-.088.473s-.334.275-.334.046c0-.152-.082-.277-.183-.277s-.041-.166.133-.37c.33-.384.519-.5.334-.2M146.86,84.826c0,.24-.22.4-.4.29s-.027-.444.225-.444a.165.165,0,0,1,.174.154m76.708.266c-.023.221-.276.178-.356-.06-.041-.122.026-.189.148-.148s.215.134.208.208m23.719.246a.4.4,0,0,1,.1.724c-.241.15-.731-.24-.731-.581,0-.277.177-.317.632-.143M141.131,86.5c0,.091-.125.213-.277.271-.169.065-.277,0-.277-.164a.275.275,0,0,1,.277-.272c.152,0,.277.074.277.165m-22.4.239c-.114.342-.512.4-.512.073a.294.294,0,0,1,.293-.293c.161,0,.26.1.219.22m110.74.052c0,.165-.108.229-.277.164-.152-.058-.277-.18-.277-.271s.125-.165.277-.165a.275.275,0,0,1,.277.272m-95.441,1.222c.158.257-.193.619-.448.461-.213-.131-.076-.662.17-.662a.412.412,0,0,1,.278.2m102.528.256c.13.339-.216.575-.471.32A.356.356,0,0,1,236.3,88c.085,0,.2.122.259.272m-87.477.745a.277.277,0,1,1-.277-.277.278.278,0,0,1,.277.277m101.18.092a.363.363,0,0,1-.231.323c-.138.046-.231-.085-.231-.323s.093-.37.231-.323a.363.363,0,0,1,.231.323m-28.737.092a.277.277,0,1,1-.277-.277.278.278,0,0,1,.277.277m-87.135.462c-.09.145-.2.155-.319.032a.343.343,0,0,1-.051-.4c.09-.145.2-.155.319-.032a.343.343,0,0,1,.051.4m101.642.185c-.09.145-.2.155-.319.032a.343.343,0,0,1-.051-.4c.09-.145.2-.155.319-.032a.343.343,0,0,1,.051.4m-102.39-.013c.137.222-.211.441-.456.288-.207-.128-.071-.46.188-.46a.369.369,0,0,1,.269.172m103.305.185c.137.222-.211.441-.456.288-.207-.128-.071-.46.188-.46a.369.369,0,0,1,.269.172M257.7,91.66c.041.12-.058.219-.219.219a.294.294,0,0,1-.293-.293c0-.326.4-.269.512.074M97,93.5c.049.424.165.524.705.6.677.1.394.367-.388.367-.289,0-.336.089-.242.462.215.857-.125,1.2-.366.37-.157-.54-.326-.755-.626-.8-.533-.077-.529-.36.006-.436.3-.043.432-.2.474-.567.032-.279.131-.508.219-.508s.187.229.219.508m41.462-.127c.17.275-.027.425-.381.289-.164-.063-.245-.2-.182-.3a.307.307,0,0,1,.563.011m135.026.311c.042.364.176.525.474.567.535.076.539.359.006.436-.3.043-.469.259-.626.8-.241.831-.581.487-.366-.37.094-.373.047-.462-.242-.462-.782,0-1.065-.268-.388-.367.54-.079.656-.179.705-.6.032-.279.131-.508.219-.508s.187.229.219.508m-41.337-.138c.063.1-.018.237-.182.3-.354.136-.551-.014-.381-.289a.307.307,0,0,1,.563-.011m-87.69.923c0,.205-.123.37-.277.37-.281,0-.379-.391-.154-.616s.432-.121.432.247m81.651.247a.231.231,0,0,1-.231.308c-.172,0-.291-.158-.291-.385,0-.45.432-.386.522.078m-82.945,1.324a.278.278,0,0,1-.277.277c-.288,0-.367-.219-.154-.432s.432-.134.432.154m84.228.243c.041.12-.058.219-.219.219a.294.294,0,0,1-.293-.293c0-.326.4-.269.512.074M110.084,96.4a.38.38,0,0,1-.564.375c-.132-.082-.125-.2.023-.381.279-.336.541-.334.541.006m33.847.381a.289.289,0,0,1-.2.242c-.109.036-.2-.073-.2-.242s.09-.278.2-.242a.291.291,0,0,1,.2.242m82.58.185c0,.152-.079.277-.174.277-.233,0-.4-.288-.252-.436.208-.208.426-.127.426.159m23.285.016c0,.161-.1.26-.219.219-.343-.114-.4-.512-.074-.512a.294.294,0,0,1,.293.293m-115.687.737a.231.231,0,0,1-.308.231c-.464-.091-.528-.522-.078-.522.227,0,.385.119.385.291m102.52.125c-.116.349-.693.4-.693.06,0-.172.158-.291.385-.291s.353.1.308.231m-128.365.231a.289.289,0,0,1-.2.242c-.109.036-.2-.073-.2-.242s.09-.278.2-.242a.289.289,0,0,1,.2.242m1.081.462c0,.2-.074.37-.165.37-.207,0-.4-.48-.253-.628.223-.223.419-.1.419.259m142.327-.092a.289.289,0,0,1-.2.242c-.109.036-.2-.073-.2-.242s.09-.278.2-.242a.29.29,0,0,1,.2.242m-118.519.339c.034.177-.058.308-.221.308-.343,0-.55-.3-.387-.565s.536-.115.608.257m127.628-.14c.348.348.222.632-.283.632-.45,0-.686-.532-.334-.755.327-.207.275-.217.616.123m-23.274.275a.379.379,0,0,1-.323.322c-.319.061-.45-.331-.2-.585a.315.315,0,0,1,.519.263m-11.55,1.927a3.64,3.64,0,0,0,2.533,3.065l1,.408-.93.508c-1.329.726-2.051,1.633-2.051,2.572,0,.557-.291.461-.557-.183a5.217,5.217,0,0,0-3.6-2.662c-.549-.135-.543-.141.564-.646a4.137,4.137,0,0,0,2.4-2.493c.2-1,.294-1.222.468-1.113a.752.752,0,0,1,.172.545M89.2,100.83a.506.506,0,0,1-.2.391.345.345,0,0,1-.456-.456c.181-.293.657-.246.657.066m13.366.177c.116.3-.02.48-.368.48-.136,0-.247-.166-.247-.37a.312.312,0,0,1,.614-.111m11.583.018a.277.277,0,1,1-.277-.277.278.278,0,0,1,.277.277m149.221-.105a.218.218,0,0,1-.09.294c-.274.169-.783-.053-.642-.28a.473.473,0,0,1,.732-.014m18.119.2c0,.4-.537.339-.614-.066-.048-.247.028-.322.274-.274a.4.4,0,0,1,.34.34m-19.746.274c.094.3-.245.706-.469.567-.336-.208-.251-.881.1-.812a.5.5,0,0,1,.367.245m-171.618.554c0,.154-.164.277-.37.277-.368,0-.48-.2-.247-.432s.616-.127.616.154m30.862,0a.277.277,0,1,1-.277-.277.278.278,0,0,1,.277.277m-19.774.37c0,.517-.056.544-.566.271s-.452-.733.1-.733c.37,0,.462.092.462.462m179.4-.139c.045.136-.082.231-.308.231s-.385-.119-.385-.291c0-.339.577-.289.693.06m-160.961.081c-.114.342-.512.4-.512.073a.294.294,0,0,1,.293-.293c.161,0,.26.1.219.22m150.843.8c0,.152-.079.277-.174.277-.233,0-.4-.288-.252-.436.208-.208.426-.127.426.159m-150.8.2c0,.326-.4.269-.512-.073-.041-.121.058-.22.219-.22a.294.294,0,0,1,.293.293m151.682.481c-.114.342-.512.4-.512.073a.294.294,0,0,1,.293-.293c.161,0,.26.1.219.22m-167.884.594a.751.751,0,0,1-.154.6c-.311.42-.963-.061-.769-.568a.532.532,0,0,1,.923-.032m151.159.406c.23.23-.106.628-.53.628s-.594-.342-.32-.616a.857.857,0,0,1,.85-.012m15.442.566c-.091.464-.522.528-.522.078,0-.227.119-.385.291-.385a.231.231,0,0,1,.231.308m-176.541.628c.105.17-.386.71-.654.719-.383.012-.607-.353-.382-.625.277-.333.856-.385,1.036-.094m150.576.247q.184.481-.441.48c-.327,0-.606-.431-.407-.628a.606.606,0,0,1,.848.148m31.921.2c-.015.274-.429.224-.524-.064-.052-.155.032-.225.225-.185.169.035.3.147.3.249m-30.041.37a.44.44,0,0,1-.208.408c-.244.081-.491-.452-.33-.712.172-.278.538-.071.538.3m-.2.943c.413.159.363.627-.067.627-.407,0-.644-.278-.473-.554.134-.217.156-.22.54-.073m19.7,3.122a.277.277,0,1,1-.277-.277.278.278,0,0,1,.277.277m-154.4,2.033c0,.551-.722.5-.8-.061-.051-.359.011-.42.37-.37q.431.061.431.431m156.456,2.18c-.237.237-.478.055-.3-.23a.229.229,0,0,1,.311-.084c.127.079.123.182-.009.314M139.68,116.365a.289.289,0,0,1-.2.242c-.109.036-.2-.073-.2-.242s.09-.278.2-.242a.289.289,0,0,1,.2.242m91.081.185c0,.152-.079.277-.174.277-.233,0-.4-.288-.252-.436.208-.208.426-.127.426.159m-91.848.57c0,.326-.4.269-.512-.073-.041-.121.058-.22.219-.22a.294.294,0,0,1,.293.293m92.729.112c-.114.342-.512.4-.512.073a.294.294,0,0,1,.293-.293c.161,0,.26.1.219.22m34.97.412a1.931,1.931,0,0,1-.112.37c-.159.413-.443.363-.443-.078,0-.205.123-.37.277-.37s.277.035.277.078m-126.406,1.047c0,.45-.432.386-.522-.078a.231.231,0,0,1,.231-.308c.172,0,.291.158.291.385m90.152.107c-.091.464-.522.528-.522.078,0-.227.119-.385.291-.385a.231.231,0,0,1,.231.308m-123.049.057c.214.135.226.224.055.4s-.285.169-.5-.013c-.479-.4-.091-.725.45-.383m26.983.733a.378.378,0,0,1-.557.286.212.212,0,0,1-.081-.288c.139-.225.639-.223.639,0m102.022.288c-.015.274-.429.224-.524-.064-.052-.155.032-.225.225-.185.169.035.3.147.3.249m-158.862.483c-.157.254-.634.192-.634-.083a.6.6,0,0,1,.122-.368c.166-.167.638.247.512.451m2.588,0c-.129.209-.635.218-.635.011,0-.26.208-.38.479-.275.142.055.213.173.156.264m213.183.084c0,.272-.395.364-.614.144-.167-.166.247-.638.451-.512a.473.473,0,0,1,.164.368m-2.638.193a.505.505,0,0,1-.444-.006c-.276-.106-.285-.151-.055-.292.284-.176.716.083.5.3M78.994,122.406c-.114.342-.512.4-.512.073a.294.294,0,0,1,.293-.293c.161,0,.26.1.219.22m212.567.258c0,.161-.1.26-.219.219-.343-.114-.4-.512-.074-.512a.294.294,0,0,1,.293.293m-182.249.893c.047.4-.008.5-.258.448-.5-.1-.788-.68-.449-.9.414-.264.639-.121.707.448m20.075-.459c.137.222-.211.441-.456.288-.207-.128-.071-.46.188-.46a.369.369,0,0,1,.269.172m111.806.185c.137.222-.211.441-.456.288-.207-.128-.071-.46.188-.46a.369.369,0,0,1,.269.172m-111.059.567c-.09.145-.2.155-.319.032a.343.343,0,0,1-.051-.4c.09-.145.2-.155.319-.032a.343.343,0,0,1,.051.4m110.143.185c-.09.145-.2.155-.319.032a.343.343,0,0,1-.051-.4c.09-.145.2-.155.319-.032a.343.343,0,0,1,.051.4m-95.451.092a.277.277,0,1,1-.277-.277.278.278,0,0,1,.277.277m80.944.185a.277.277,0,1,1-.277-.277.278.278,0,0,1,.277.277m-96,.478a.365.365,0,0,1-.09.415c-.232.232-.629-.18-.452-.468.129-.21.4-.183.541.053m111.034.132c.177.287-.22.7-.452.468a.365.365,0,0,1-.09-.415c.146-.236.412-.262.541-.053m-104.3.314c0,.152-.079.277-.174.277-.233,0-.4-.288-.252-.436.208-.208.426-.127.426.159m97.419.185a.289.289,0,0,1-.2.242c-.109.036-.2-.073-.2-.242s.09-.278.2-.242a.291.291,0,0,1,.2.242M76.784,126.576c-.075.39-.4.365-.487-.036a.226.226,0,0,1,.245-.287c.19,0,.281.121.242.323m14.977,1.217a3.033,3.033,0,0,0,.927.6l.63.263-.761.552a2.518,2.518,0,0,0-.877,1.015c-.149.59-.4.591-.665,0a3.014,3.014,0,0,0-1.267-.99l-1.057-.529.827-.4a1.87,1.87,0,0,0,1.12-1.149l.294-.748.266.523a5.109,5.109,0,0,0,.564.861m201.982-1.032c-.075.39-.4.365-.487-.036a.227.227,0,0,1,.245-.287c.19,0,.281.121.242.323m-156.864.712a.269.269,0,0,1-.277.258.33.33,0,0,1-.277-.364c0-.248.089-.33.277-.257a.437.437,0,0,1,.277.363m96.837.073c0,.205-.123.37-.277.37-.5,0-.329-.548.231-.724.026-.008.046.152.046.355m-91.155.847c-.176.176-.529-.109-.4-.322.079-.127.182-.123.314.009.109.109.147.249.084.312m85.26.131c-.237.237-.478.055-.3-.23a.229.229,0,0,1,.311-.084c.127.079.123.182-.009.314m-119.455.875c.312.006.313.018.006.251a1.043,1.043,0,0,0-.345.687c-.018.378-.034.388-.109.072a1.546,1.546,0,0,0-.487-.689c-.345-.275-.356-.32-.076-.323.207,0,.328-.152.335-.419l.011-.416.167.416a.654.654,0,0,0,.5.421m154.33.183c.258,0,.242.059-.089.323a1.546,1.546,0,0,0-.487.689c-.068.288-.092.262-.109-.119a.714.714,0,0,0-.345-.619c-.287-.115-.277-.148.092-.291a.688.688,0,0,0,.441-.49c.018-.227.05-.2.105.087a.48.48,0,0,0,.391.42m-118.981,1.66c0,.2-.083.37-.185.37s-.185-.035-.185-.078a1.932,1.932,0,0,0-.112-.37c-.074-.191-.01-.292.185-.292.174,0,.3.153.3.37m138.33.959.452.206-.459.425a1.431,1.431,0,0,0-.466.757c-.006.254-.069.218-.27-.15a1.921,1.921,0,0,0-.832-.719c-.569-.236-.569-.236-.146-.442a1.912,1.912,0,0,0,.7-.787l.277-.58.146.542a1.254,1.254,0,0,0,.6.748m-55.168-1.066a1.931,1.931,0,0,1-.112.37c-.159.413-.443.363-.443-.078,0-.205.123-.37.277-.37s.277.035.277.078m-107,1.955c0,.39-.269.5-.462.185a.378.378,0,0,1,.288-.554c.1,0,.174.166.174.37m130.749.185a.363.363,0,0,1-.231.323c-.138.046-.231-.085-.231-.323s.093-.37.231-.323a.363.363,0,0,1,.231.323m33.184,1.293a.911.911,0,0,0-.247.371c-.084.221-.109.212-.12-.046-.008-.177-.1-.323-.2-.323s-.1-.14.036-.356c.205-.329.239-.333.448-.047.124.169.162.35.084.4m-178.818.542c.137.222-.211.441-.456.288-.207-.128-.071-.46.188-.46a.369.369,0,0,1,.269.172m160.595.185c.137.222-.211.441-.456.288-.207-.128-.071-.46.188-.46a.369.369,0,0,1,.269.172m-159.847.567c-.09.145-.2.155-.319.032a.343.343,0,0,1-.051-.4c.09-.145.2-.155.319-.032a.343.343,0,0,1,.051.4m158.931.185c-.09.145-.2.155-.319.032a.343.343,0,0,1-.051-.4c.09-.145.2-.155.319-.032a.343.343,0,0,1,.051.4m-159.291.755a.365.365,0,0,1-.09.415c-.232.232-.629-.18-.452-.468.129-.21.4-.183.541.053m159.822.132c.177.287-.22.7-.452.468a.365.365,0,0,1-.09-.415c.146-.236.412-.262.541-.053m-141.026,2.55c.242.242-.083.645-.346.427-.14-.116-.208-.284-.152-.374a.3.3,0,0,1,.5-.053m122.186.237c.055.091-.013.259-.152.374-.193.161-.277.149-.355-.053-.158-.412.28-.689.507-.322M123.39,141.787c0,.1-.122.174-.272.174s-.229-.108-.165-.276c.109-.285.437-.207.437.1m123.616.332c-.273.093-.412-.1-.255-.35.1-.161.175-.152.29.034.091.147.077.277-.035.316m-60.691,14.829c-10.777.877-23,7.055-29.558,14.942a35.5,35.5,0,0,0-6.106,36.149c2.852,7.668,6.483,9.7,10.239,5.746,1.185-1.247,9.509-4.555,13.584-5.4,7.8-1.61,10.917-.193,12.121,5.511.861,4.081.584,5.256-3.525,14.921a169.978,169.978,0,0,0-9.877,31.877c-.844,4.507-.837,4.423-.323,4.274.178-.052,4.731-.145,10.118-.208s9.817-.176,9.845-.253-.57-2.587-1.328-5.579c-3.29-12.994-3.467-17.324-1.4-34.178,1.276-10.39,2.142-12.5,7.152-17.4,3.084-3.019,5.127-4.3,10.273-6.447,2.21-.921,2.408-.972,2.957-.751a9.14,9.14,0,0,0,4.191,1.007c3.5.038,4.676-1.147,5.946-5.962,1.857-7.044,0-14.818-5.537-23.116-7.634-11.453-16.532-16.133-28.777-15.136m3.813,37.821c2.564,5.675,2.629,9.928.216,14.257-.46.824-.7,1.1-.8.924-.077-.142-.739-1.921-1.472-3.954-2.031-5.631-3.062-7.564-5.448-10.21a7.41,7.41,0,0,1-.811-.979c.035,0,1.727-.288,3.76-.629s3.762-.629,3.842-.639a3.917,3.917,0,0,1,.711,1.231m-11.65,2.05c1.239.786,4.049,4.518,4.048,5.377,0,.233-.77.407-4.02.91-6.057.937-8.91,1.444-9.933,1.764-.508.16-.946.291-.972.292a16.221,16.221,0,0,1,.714-1.523c2.886-5.769,7.227-8.682,10.162-6.82m42.727,12.724c-4.36,5.571-7.99,10.233-8.069,10.361-.3.487,5.088,9.006,8.847,14a198.731,198.731,0,0,0,23.882,25.55l3.372,3,2.634-.1c3.65-.14,24.3-.639,26.462-.639,1.918,0,2.237-.205,1.284-.829-4.73-3.1-22.133-20.328-32.949-32.621a87.279,87.279,0,0,1-15.683-25.686c-.821-2-1.355-3.068-1.552-3.106s-2.732,3.046-8.229,10.07M137.073,200.4c-.188.432-.782,1.867-1.32,3.188a102.861,102.861,0,0,1-8.969,16.788c-5.831,8.5-23.975,27.6-36.15,38.058-2.008,1.724-3.65,3.207-3.65,3.3a4.934,4.934,0,0,0,1.769.164c2.164,0,22.812.5,26.462.639l2.634.1,3.372-3a198.731,198.731,0,0,0,23.882-25.55c3.76-4.992,9.144-13.51,8.847-14-.7-1.147-16.046-20.469-16.257-20.469-.153,0-.432.353-.619.785m63.564,17.3c-5.743,2.524-5.729,2.517-5.729,3.054,0,.626,1.448,33.4,1.648,37.328.125,2.425.239,3.375.432,3.567.308.307,6.673.065,7-.267a84.134,84.134,0,0,0,.023-8.939c-.09-4.815-.15-8.777-.134-8.8s3,3.975,6.623,8.9,6.741,9.079,6.919,9.239c.295.267.825.269,5.859.025,3.045-.148,5.972-.271,6.506-.273,1.31,0,1.332.043-1.633-3.572-4.58-5.588-11.217-14.666-14.411-19.716A54.918,54.918,0,0,1,206,217.961a6.55,6.55,0,0,0-.625-2.254c-.113.006-2.243.906-4.733,2m-39.546.439a54.918,54.918,0,0,1-7.752,20.282c-3.814,6.029-12.97,18.343-16.38,22.03-.918.993-.848,1.255.336,1.259.534,0,3.461.125,6.506.273,5.034.244,5.564.242,5.859-.025.178-.161,3.291-4.319,6.919-9.239s6.608-8.923,6.623-8.9-.044,3.99-.134,8.8a84.141,84.141,0,0,0,.023,8.939c.332.332,6.7.574,7,.267s.316-.4,1.353-23.964l.76-17.276-.421-.28c-.466-.31-9.887-4.438-10.128-4.438a9.5,9.5,0,0,0-.57,2.264M163,274.634c-3.152.8-5.018,4.645-3.468,7.15.752,1.217,2.269,1.994,6.245,3.2,4.569,1.387,5.3,1.928,5.284,3.891-.025,2.569-1.339,3.688-4.34,3.7-3.53.008-5.628-1.294-5.95-3.691-.139-1.034-.415-1.212-1.438-.926-1.745.489.3,4.46,2.93,5.7,5.359,2.518,11.373-.323,10.965-5.179-.221-2.642-1.179-3.381-6.78-5.23-4.967-1.639-5.46-1.988-5.316-3.749.185-2.248,1.522-3.242,4.49-3.338l2.039-.066.963.76a5.61,5.61,0,0,1,1.419,1.661l.456.9.839-.3c1.593-.573.429-3.085-1.931-4.166a18.706,18.706,0,0,0-6.409-.313m32.733.285-.454.454v8.971c0,8.725.01,8.981.37,9.341.381.381,1.391.423,10.672.456l1.432.006v-2.218l-3.234-.116c-1.779-.064-4.086-.126-5.128-.139l-1.894-.022v-3.315a18.624,18.624,0,0,1,.168-3.42c.092-.057,2.233-.029,4.759.062,5.274.191,5.237.2,5.237-1.076,0-1.131.166-1.079-3.824-1.21-1.81-.059-3.983-.154-4.827-.212l-1.537-.1.093-1.045c.052-.575.1-1.814.1-2.755l.011-1.709h4.605c5.508,0,5.189.08,5.189-1.313v-1.089h-11.29l-.454.454m32.473.443c-.267.174,6.343,16.971,6.937,17.626a1.551,1.551,0,0,0,1.876,0c.331-.279,6.68-16.8,6.68-17.384,0-.481-2.125-.552-2.377-.079-.094.178-1.271,3.276-2.613,6.884s-2.5,6.623-2.572,6.7-1.383-3-2.916-6.838l-2.788-6.977-.991-.048a3.229,3.229,0,0,0-1.236.113m-93.108.354c-.152.1-.233,1.994-.283,6.6-.079,7.414-.043,7.243-1.823,8.843a5.091,5.091,0,0,1-7.191,0c-1.782-1.6-1.745-1.422-1.823-8.889l-.068-6.514h-1c-1.294,0-1.226-.428-1.154,7.226l.059,6.357.509,1.037c2.679,5.454,11.457,5.454,14.136,0l.509-1.037.059-6.5c.041-4.493,0-6.621-.145-6.884a1.64,1.64,0,0,0-1.79-.239" transform="translate(-30.837 -34.46)" fill="#fff" fill-rule="evenodd"/></svg>