<?xml version="1.0" standalone="no"?>
<!DOCTYPE svg PUBLIC "-//W3C//DTD SVG 20010904//EN"
 "http://www.w3.org/TR/2001/REC-SVG-20010904/DTD/svg10.dtd">
<svg version="1.0" xmlns="http://www.w3.org/2000/svg"
 width="308.000000pt" height="306.000000pt" viewBox="0 0 308.000000 306.000000"
 preserveAspectRatio="xMidYMid meet">
<metadata>
Created by potrace 1.16, written by Peter Selinger 2001-2019
</metadata>
<g transform="translate(0.000000,306.000000) scale(0.061600,-0.061200)"
fill="#000000" stroke="none">
<path d="M2365 4639 c-272 -15 -528 -82 -785 -205 -294 -142 -533 -326 -723
-559 -190 -231 -324 -476 -405 -742 -39 -125 -69 -265 -82 -383 -15 -133 -13
-407 4 -535 60 -457 269 -883 589 -1207 188 -190 363 -316 602 -433 645 -315
1391 -291 2005 65 198 114 444 327 590 510 336 422 519 987 481 1481 -44 558
-270 1038 -669 1421 -434 417 -992 621 -1607 587z m326 -160 c695 -71 1279
-478 1584 -1104 183 -374 250 -762 195 -1133 -65 -447 -257 -837 -565 -1147
-66 -67 -163 -153 -215 -192 -595 -446 -1391 -519 -2065 -190 -567 277 -959
794 -1082 1425 -23 122 -26 161 -27 357 -1 229 8 305 55 490 70 274 201 539
376 755 78 96 256 269 353 342 394 297 916 446 1391 397z"/>
<path d="M2301 4070 c-368 -52 -687 -213 -942 -478 -219 -227 -362 -507 -415
-812 -23 -137 -24 -368 0 -500 107 -602 514 -1092 1066 -1284 231 -81 524
-103 767 -58 193 35 392 112 558 215 450 279 748 818 747 1352 0 591 -345
1146 -877 1410 -234 117 -391 155 -660 160 -99 2 -209 0 -244 -5z m459 -166
c615 -108 1098 -647 1161 -1298 54 -552 -278 -1132 -794 -1388 -111 -55 -236
-99 -359 -125 -117 -25 -409 -24 -528 0 -523 110 -939 480 -1099 977 -88 272
-90 574 -5 844 92 295 311 593 554 755 218 146 402 213 695 255 59 8 281 -3
375 -20z"/>
<path d="M1819 3205 c-254 -51 -466 -242 -546 -492 -61 -194 -31 -425 78 -593
177 -275 505 -400 806 -308 l41 13 -59 89 c-32 49 -71 120 -86 157 l-28 69
-61 0 c-136 0 -270 84 -331 208 -25 50 -28 68 -28 152 0 82 4 103 27 152 34
73 98 137 174 174 53 26 69 29 154 29 83 0 102 -3 150 -27 31 -15 77 -49 103
-75 77 -77 94 -125 116 -335 32 -300 249 -544 551 -619 82 -21 269 -16 350 8
248 76 422 249 498 493 42 137 38 291 -12 439 -111 327 -471 537 -803 467
-123 -26 -119 -18 -52 -119 32 -49 70 -119 85 -157 l26 -68 83 -4 c138 -7 242
-75 307 -201 30 -57 32 -70 32 -157 0 -87 -2 -100 -31 -155 -128 -245 -446
-275 -613 -57 -42 55 -69 132 -70 198 0 80 -28 219 -56 287 -134 319 -470 499
-805 432z"/>
</g>
</svg>
