<?xml version="1.0" standalone="no"?>
<!DOCTYPE svg PUBLIC "-//W3C//DTD SVG 20010904//EN"
 "http://www.w3.org/TR/2001/REC-SVG-20010904/DTD/svg10.dtd">
<svg version="1.0" xmlns="http://www.w3.org/2000/svg"
 width="1365.000000pt" height="1365.000000pt" viewBox="0 0 1365.000000 1365.000000"
 preserveAspectRatio="xMidYMid meet">
<metadata>
Created by potrace 1.16, written by Peter Selinger 2001-2019
</metadata>
<g transform="translate(0.000000,1365.000000) scale(0.068250,-0.068250)"
fill="#000000" stroke="none">
<path d="M9765 18600 c-4 -6 -93 -10 -235 -10 -142 0 -231 -4 -235 -10 -4 -6
-55 -10 -121 -10 -93 0 -116 -3 -120 -15 -5 -12 -26 -15 -103 -15 -145 -1
-294 -15 -299 -28 -2 -7 -24 -12 -48 -12 -28 0 -47 -5 -50 -14 -4 -9 -39 -15
-127 -20 -90 -5 -125 -10 -133 -21 -7 -9 -28 -15 -52 -15 -22 0 -44 -4 -47
-10 -3 -5 -28 -10 -56 -10 -27 0 -49 -4 -49 -10 0 -6 -28 -10 -65 -10 -37 0
-65 -4 -65 -10 0 -5 -18 -10 -39 -10 -22 0 -46 -6 -53 -14 -8 -7 -39 -17 -69
-21 -30 -4 -64 -13 -76 -21 -12 -8 -34 -14 -48 -14 -14 0 -28 -6 -31 -14 -3
-9 -28 -17 -64 -21 -33 -4 -64 -13 -71 -21 -6 -8 -24 -14 -40 -14 -16 0 -29
-4 -29 -10 0 -5 -18 -10 -39 -10 -22 0 -43 -4 -46 -10 -3 -5 -17 -10 -30 -10
-13 0 -27 -4 -30 -10 -3 -5 -20 -10 -36 -10 -17 0 -32 -6 -35 -15 -4 -9 -19
-15 -40 -15 -19 0 -34 -4 -34 -10 0 -5 -13 -10 -30 -10 -16 0 -30 -4 -30 -10
0 -5 -11 -10 -24 -10 -13 0 -26 -6 -29 -13 -3 -7 -28 -19 -56 -27 -28 -7 -51
-17 -51 -22 0 -4 -16 -8 -35 -8 -19 0 -35 -4 -35 -10 0 -5 -14 -10 -30 -10
-17 0 -33 -6 -36 -14 -3 -8 -27 -16 -55 -20 -30 -4 -52 -13 -56 -21 -3 -8 -14
-15 -24 -15 -11 0 -22 -6 -25 -14 -3 -8 -24 -18 -45 -21 -22 -4 -43 -13 -46
-21 -3 -8 -14 -14 -24 -14 -10 0 -19 -4 -19 -10 0 -5 -11 -10 -25 -10 -13 0
-40 -9 -60 -20 -20 -11 -47 -20 -60 -20 -16 0 -25 -6 -25 -15 0 -9 -9 -15 -22
-15 -13 0 -34 -7 -48 -15 -14 -8 -35 -19 -47 -24 -13 -6 -23 -15 -23 -19 0 -5
-18 -12 -40 -16 -23 -3 -43 -13 -46 -21 -4 -8 -15 -15 -25 -15 -10 0 -19 -4
-19 -10 0 -5 -9 -10 -19 -10 -11 0 -23 -4 -26 -10 -3 -5 -15 -10 -26 -10 -10
0 -19 -4 -19 -10 0 -5 -9 -10 -19 -10 -10 0 -21 -7 -25 -15 -3 -8 -13 -15 -22
-15 -25 0 -94 -42 -94 -57 0 -7 -9 -13 -20 -13 -11 0 -29 -9 -40 -20 -11 -11
-27 -20 -35 -20 -8 0 -15 -4 -15 -10 0 -5 -6 -10 -14 -10 -21 0 -98 -43 -103
-57 -3 -7 -12 -13 -19 -13 -17 0 -94 -49 -94 -60 0 -4 -14 -10 -30 -14 -17 -3
-42 -17 -56 -31 -14 -14 -31 -25 -38 -25 -7 0 -21 -9 -31 -20 -10 -11 -25 -20
-34 -20 -8 0 -25 -10 -36 -23 -11 -12 -32 -28 -47 -35 -16 -6 -28 -18 -28 -27
0 -9 -9 -15 -25 -15 -14 0 -30 -9 -37 -20 -7 -11 -23 -20 -35 -20 -13 0 -23
-4 -23 -10 0 -5 -7 -10 -15 -10 -9 0 -18 -7 -21 -15 -4 -8 -13 -15 -21 -15 -8
0 -17 -9 -20 -20 -3 -11 -12 -20 -19 -20 -8 0 -14 -7 -14 -15 0 -8 -9 -15 -20
-15 -11 0 -29 -9 -40 -20 -11 -11 -26 -20 -33 -20 -7 0 -19 -9 -27 -20 -8 -11
-19 -20 -26 -20 -6 0 -16 -11 -23 -24 -7 -13 -24 -29 -37 -35 -13 -6 -24 -15
-24 -21 0 -5 -7 -10 -15 -10 -9 0 -18 -6 -21 -14 -3 -8 -19 -19 -35 -25 -16
-5 -29 -15 -29 -20 0 -6 -4 -11 -9 -11 -6 0 -30 -20 -55 -45 -26 -25 -50 -45
-55 -45 -5 0 -28 -18 -50 -40 -22 -22 -44 -40 -49 -40 -16 0 -182 -162 -182
-177 0 -8 5 -11 12 -7 6 4 8 3 5 -3 -3 -5 -19 -8 -34 -6 -24 3 -38 -6 -92 -61
-34 -37 -67 -66 -71 -66 -5 0 -12 -9 -15 -20 -3 -11 -13 -20 -21 -20 -8 0 -14
-7 -14 -15 0 -8 -4 -15 -9 -15 -13 0 -121 -108 -121 -121 0 -5 -7 -9 -15 -9
-8 0 -15 -6 -15 -14 0 -8 -9 -18 -20 -21 -11 -3 -20 -13 -20 -21 0 -8 -7 -14
-15 -14 -8 0 -15 -3 -15 -8 0 -4 -34 -42 -75 -84 -41 -42 -75 -81 -75 -85 0
-5 -31 -41 -70 -81 -38 -40 -70 -77 -70 -82 0 -6 -18 -29 -40 -51 -22 -22 -40
-45 -40 -50 0 -5 -20 -29 -45 -55 -25 -25 -45 -49 -45 -54 0 -4 -7 -10 -15
-14 -8 -3 -15 -12 -15 -19 0 -8 -16 -31 -35 -51 -19 -21 -35 -41 -35 -46 0 -4
-18 -26 -40 -48 -22 -22 -40 -45 -40 -51 0 -6 -14 -25 -30 -41 -17 -16 -30
-38 -30 -50 0 -11 -7 -20 -15 -20 -8 0 -15 -6 -15 -14 0 -8 -9 -18 -20 -21
-12 -4 -20 -15 -20 -29 0 -14 -10 -28 -25 -36 -14 -8 -25 -22 -25 -34 0 -12
-9 -27 -20 -34 -11 -7 -20 -23 -20 -37 0 -16 -6 -25 -15 -25 -9 0 -21 -12 -27
-27 -7 -16 -22 -37 -34 -48 -22 -21 -64 -90 -64 -105 0 -5 -11 -20 -25 -34
-13 -13 -27 -36 -31 -51 -4 -15 -17 -38 -30 -52 -13 -14 -29 -38 -36 -54 -7
-16 -16 -29 -20 -29 -7 0 -58 -99 -58 -112 0 -5 -11 -21 -25 -36 -14 -15 -28
-41 -31 -59 -4 -19 -12 -33 -20 -33 -8 0 -14 -8 -14 -18 0 -11 -9 -27 -20 -37
-11 -10 -20 -27 -20 -37 0 -10 -7 -21 -15 -24 -8 -4 -15 -15 -15 -25 0 -10 -4
-19 -10 -19 -5 0 -10 -9 -10 -19 0 -11 -4 -23 -10 -26 -5 -3 -10 -15 -10 -26
0 -10 -4 -19 -10 -19 -5 0 -10 -9 -10 -19 0 -10 -7 -21 -15 -25 -8 -3 -18 -23
-21 -46 -4 -22 -10 -40 -14 -40 -12 0 -60 -97 -60 -120 0 -11 -7 -20 -15 -20
-8 0 -15 -9 -15 -20 0 -11 -4 -20 -10 -20 -5 0 -10 -13 -10 -29 0 -17 -5 -33
-10 -36 -5 -3 -10 -15 -10 -26 0 -10 -4 -19 -10 -19 -5 0 -10 -11 -10 -25 0
-15 -6 -25 -14 -25 -9 0 -16 -17 -20 -49 -4 -29 -12 -51 -21 -55 -8 -3 -15
-14 -15 -25 0 -10 -7 -21 -15 -24 -8 -4 -17 -26 -21 -56 -4 -28 -12 -52 -20
-55 -8 -3 -14 -15 -14 -26 0 -11 -4 -20 -10 -20 -5 0 -10 -13 -10 -29 0 -17
-4 -33 -10 -36 -5 -3 -10 -19 -10 -36 0 -16 -4 -29 -10 -29 -5 0 -10 -13 -10
-29 0 -16 -6 -31 -15 -35 -8 -3 -15 -12 -15 -21 0 -24 -24 -95 -32 -95 -5 0
-8 -15 -8 -34 0 -21 -6 -36 -15 -40 -9 -3 -15 -18 -15 -35 0 -16 -5 -33 -10
-36 -6 -3 -10 -17 -10 -30 0 -13 -5 -27 -10 -30 -5 -3 -10 -24 -10 -46 0 -21
-4 -39 -10 -39 -5 0 -10 -13 -10 -29 0 -16 -7 -34 -15 -41 -8 -6 -17 -38 -21
-70 -4 -36 -12 -61 -20 -64 -8 -3 -14 -17 -14 -31 0 -14 -6 -36 -14 -48 -8
-12 -17 -46 -21 -76 -4 -30 -14 -61 -21 -69 -8 -8 -14 -34 -14 -62 0 -27 -5
-52 -10 -55 -5 -3 -10 -28 -10 -56 0 -27 -4 -49 -10 -49 -5 0 -10 -25 -10 -55
0 -30 -4 -55 -10 -55 -5 0 -10 -20 -10 -44 0 -28 -5 -46 -14 -49 -9 -4 -16
-34 -21 -100 -5 -68 -11 -97 -21 -101 -10 -4 -14 -22 -14 -61 0 -32 -6 -65
-14 -78 -10 -15 -17 -69 -22 -174 -5 -114 -10 -153 -20 -157 -11 -4 -14 -38
-14 -155 0 -89 -4 -152 -10 -156 -6 -4 -10 -78 -10 -190 0 -112 -4 -186 -10
-190 -14 -8 -14 -702 0 -710 6 -4 10 -80 10 -196 0 -119 4 -189 10 -189 6 0
10 -53 10 -139 0 -104 3 -141 14 -150 9 -8 15 -54 20 -159 5 -100 12 -154 22
-169 8 -13 14 -47 14 -83 0 -44 4 -60 14 -60 10 0 15 -26 21 -105 5 -70 11
-108 21 -116 8 -6 14 -29 14 -50 0 -22 4 -39 9 -39 5 0 12 -24 15 -52 15 -144
19 -164 27 -172 5 -6 9 -27 9 -48 0 -25 5 -41 15 -44 8 -4 15 -18 15 -33 0
-43 22 -141 31 -141 5 0 9 -16 9 -35 0 -23 5 -35 14 -35 9 0 16 -19 20 -61 5
-38 12 -62 22 -66 8 -3 14 -19 14 -39 0 -19 5 -34 10 -34 6 0 10 -18 10 -39 0
-22 4 -42 9 -45 5 -3 11 -23 14 -43 8 -61 25 -117 36 -121 6 -2 11 -12 11 -23
0 -10 5 -19 10 -19 6 0 10 -7 10 -15 0 -31 25 -95 37 -95 8 0 13 -13 13 -30 0
-16 9 -45 20 -65 11 -20 20 -51 20 -70 0 -19 5 -35 10 -35 6 0 10 -9 10 -20 0
-10 6 -23 14 -27 7 -4 16 -28 19 -53 3 -24 13 -49 21 -56 9 -6 16 -23 16 -38
0 -15 6 -29 14 -32 8 -3 18 -24 21 -45 4 -22 13 -43 21 -46 8 -3 14 -14 14
-24 0 -10 5 -19 10 -19 6 0 10 -11 10 -25 0 -14 4 -33 9 -43 5 -9 17 -34 26
-54 9 -21 19 -38 23 -38 4 0 13 -20 20 -45 7 -25 16 -45 22 -45 5 0 10 -9 10
-20 0 -11 6 -20 14 -20 9 0 17 -16 21 -41 4 -22 13 -43 21 -46 8 -3 14 -16 14
-29 0 -13 3 -24 8 -24 4 0 13 -15 21 -32 31 -76 42 -98 51 -98 6 0 10 -8 10
-18 0 -11 9 -27 20 -37 11 -10 20 -25 20 -34 0 -9 9 -22 20 -29 11 -7 20 -23
20 -36 0 -12 9 -33 20 -46 11 -13 32 -47 46 -77 15 -29 33 -53 40 -53 8 0 14
-9 14 -20 0 -11 9 -29 20 -40 11 -11 20 -27 20 -35 0 -9 7 -18 15 -21 8 -4 15
-14 15 -23 0 -10 9 -27 20 -39 11 -12 20 -28 20 -37 0 -8 4 -15 8 -15 5 0 15
-12 23 -27 7 -16 24 -38 36 -50 13 -12 23 -29 23 -38 0 -8 5 -15 11 -15 5 0
17 -16 25 -35 8 -19 18 -35 22 -35 4 0 17 -20 30 -44 13 -24 34 -49 48 -56 15
-9 24 -22 24 -38 0 -15 7 -26 20 -29 11 -3 20 -12 20 -19 0 -8 6 -14 14 -14 8
0 17 -15 21 -37 4 -24 19 -50 41 -70 19 -18 34 -37 34 -43 0 -5 5 -10 10 -10
6 0 10 -5 10 -12 0 -6 7 -18 15 -27 8 -9 23 -26 35 -39 11 -12 20 -29 20 -37
0 -8 6 -15 14 -15 8 0 18 -9 21 -20 3 -11 13 -20 21 -20 8 0 14 -7 14 -15 0
-8 5 -15 10 -15 6 0 10 -6 10 -14 0 -8 25 -40 55 -71 30 -32 55 -64 55 -71 0
-8 7 -14 15 -14 8 0 15 -5 15 -12 0 -6 29 -40 65 -76 36 -35 65 -70 65 -78 0
-8 9 -19 20 -26 11 -7 20 -18 20 -25 0 -7 4 -13 9 -13 11 0 151 -140 151 -151
0 -4 9 -11 20 -14 11 -3 20 -13 20 -21 0 -8 4 -14 9 -14 12 0 151 -139 151
-151 0 -5 6 -9 14 -9 8 0 18 -9 21 -20 3 -11 10 -20 14 -20 5 0 44 -36 87 -80
44 -44 84 -80 89 -80 6 0 40 -29 75 -65 36 -35 70 -64 77 -65 7 0 44 -32 84
-70 39 -38 76 -70 81 -70 6 0 24 -14 40 -30 15 -16 33 -30 38 -30 6 0 10 -5
10 -11 0 -5 14 -15 30 -20 17 -6 30 -16 30 -21 0 -14 52 -58 69 -58 7 0 22
-11 33 -25 11 -14 25 -25 32 -25 7 0 32 -18 55 -40 23 -22 51 -40 61 -40 11 0
20 -7 20 -15 0 -8 7 -15 15 -15 8 0 15 -5 15 -11 0 -5 13 -15 29 -20 16 -6 32
-17 35 -25 3 -8 12 -14 21 -14 8 0 15 -4 15 -10 0 -5 6 -10 13 -10 7 0 18 -9
25 -20 7 -11 23 -20 37 -20 16 0 25 -6 25 -15 0 -9 12 -21 28 -27 15 -7 34
-20 42 -29 8 -8 41 -28 73 -43 31 -16 57 -32 57 -37 0 -5 7 -9 15 -9 9 0 30
-16 48 -35 17 -19 39 -35 47 -35 8 0 26 -9 40 -20 14 -11 32 -20 41 -20 9 0
22 -7 29 -15 7 -8 18 -15 25 -15 6 0 20 -9 30 -20 10 -11 25 -20 33 -20 8 0
25 -11 37 -24 13 -14 39 -28 59 -31 21 -4 36 -13 36 -21 0 -8 9 -14 21 -14 11
0 27 -7 36 -15 8 -9 28 -19 44 -22 15 -3 30 -11 33 -19 3 -8 14 -14 24 -14 10
0 27 -9 37 -20 10 -11 26 -20 37 -20 10 0 18 -4 18 -10 0 -5 9 -10 19 -10 10
0 21 -7 25 -15 3 -8 23 -18 45 -21 22 -3 42 -13 45 -20 3 -8 19 -14 35 -14 16
0 31 -6 34 -14 3 -8 19 -17 35 -21 17 -3 33 -13 36 -21 3 -8 12 -14 21 -14 8
0 15 -4 15 -10 0 -5 9 -10 19 -10 11 0 23 -4 26 -10 3 -5 15 -10 26 -10 10 0
19 -4 19 -10 0 -5 9 -10 19 -10 10 0 21 -6 24 -14 3 -8 28 -15 63 -19 36 -4
63 -12 70 -22 6 -8 23 -15 38 -15 14 0 26 -5 26 -10 0 -6 20 -15 45 -22 25 -7
45 -15 45 -19 0 -11 60 -39 81 -39 10 0 34 -9 54 -20 20 -11 51 -20 69 -20 20
0 36 -6 39 -14 3 -7 20 -16 39 -19 75 -13 98 -20 98 -28 0 -5 11 -9 24 -9 13
0 26 -7 30 -15 3 -9 18 -15 36 -15 16 0 30 -4 30 -10 0 -5 9 -10 19 -10 11 0
23 -5 26 -10 3 -5 19 -10 36 -10 16 0 29 -4 29 -10 0 -5 11 -10 25 -10 14 0
36 -6 48 -14 12 -8 54 -17 94 -21 47 -5 73 -12 77 -21 3 -9 20 -14 45 -14 22
0 41 -5 43 -11 4 -12 70 -28 121 -29 26 0 37 -4 37 -15 0 -11 12 -15 45 -15
25 0 45 -4 45 -10 0 -5 16 -10 35 -10 19 0 35 -4 35 -10 0 -5 18 -10 40 -10
22 0 40 -4 40 -10 0 -6 27 -10 60 -10 44 0 60 -4 60 -14 0 -14 96 -26 205 -26
38 0 55 -4 59 -15 4 -11 20 -15 54 -15 30 0 54 -6 61 -14 8 -9 54 -15 159 -20
111 -6 149 -11 155 -22 6 -10 29 -14 87 -14 43 0 82 -4 85 -10 4 -6 57 -10
125 -10 68 0 121 -4 125 -10 4 -6 100 -10 255 -10 155 0 251 -4 255 -10 3 -6
19 -10 35 -10 15 0 30 -7 34 -15 3 -9 18 -15 36 -15 23 0 33 6 42 25 l11 25
353 0 c224 0 355 4 359 10 4 6 57 10 126 10 73 0 119 4 119 10 0 6 40 10 99
10 75 0 100 3 104 14 4 10 36 16 114 21 64 4 117 12 130 21 13 8 48 14 83 14
44 0 60 4 60 13 0 11 26 16 102 21 68 4 107 11 118 21 11 10 37 15 73 15 31 0
59 5 62 10 3 6 17 10 30 10 13 0 27 5 30 10 3 6 24 10 45 10 21 0 42 5 45 10
3 6 24 10 45 10 22 0 42 6 47 14 4 7 31 15 59 18 28 3 65 12 84 21 18 10 53
17 77 17 29 0 46 5 49 14 4 10 29 17 75 22 38 4 74 13 80 20 6 8 24 14 40 14
16 0 29 5 29 10 0 6 11 10 25 10 13 0 40 9 60 20 20 11 47 20 61 20 13 0 27 7
30 15 4 8 17 15 30 15 13 0 24 4 24 9 0 5 16 12 35 15 19 3 51 9 71 12 19 4
38 13 41 20 3 8 19 14 39 14 19 0 34 5 34 10 0 6 9 10 19 10 11 0 23 4 26 10
3 5 19 10 36 10 16 0 29 5 29 10 0 6 7 10 15 10 9 0 18 6 21 14 3 7 22 16 43
20 21 3 44 13 51 21 7 8 25 15 41 15 19 0 29 5 29 15 0 10 16 16 51 21 28 4
53 13 56 20 3 8 16 14 29 14 13 0 24 3 24 8 0 8 49 32 67 32 7 0 13 5 13 10 0
6 8 10 18 10 10 0 25 9 35 20 9 11 26 20 37 20 11 0 23 7 26 15 4 9 19 15 35
15 16 0 32 6 35 14 3 8 21 17 40 21 19 3 38 13 41 21 3 7 11 14 19 14 8 0 14
5 14 10 0 6 10 10 23 10 12 0 33 9 47 20 14 11 30 20 37 20 7 0 16 6 20 13 4
7 27 19 51 27 23 7 42 17 42 22 0 4 9 8 20 8 11 0 20 6 20 14 0 8 14 17 31 21
17 4 33 13 36 21 3 8 13 14 23 14 10 0 23 7 30 15 7 9 28 23 46 31 19 9 34 23
34 30 0 8 8 14 18 14 23 0 122 49 122 60 0 4 14 13 30 19 17 5 30 15 30 20 0
6 7 11 15 11 8 0 15 4 15 8 0 5 19 19 43 31 23 12 60 37 80 56 21 19 47 35 58
35 10 0 19 7 19 15 0 8 5 15 10 15 19 0 79 45 91 67 8 14 22 23 37 23 15 0 26
7 29 20 3 12 14 20 27 20 12 0 27 9 34 20 7 11 19 20 28 20 8 0 52 36 96 80
45 44 88 80 95 80 8 0 16 6 19 14 3 8 18 16 35 20 17 3 29 12 29 21 0 8 4 15
10 15 5 0 23 14 38 30 16 17 34 30 40 30 7 0 28 16 48 35 19 19 40 35 45 35 5
0 9 7 9 16 0 9 9 18 20 21 11 3 20 11 20 17 0 7 12 19 28 26 35 18 142 121
142 138 0 6 11 12 24 12 15 0 27 7 31 19 3 10 15 21 25 24 11 3 20 12 20 20 0
8 9 17 20 20 12 3 20 14 20 26 0 13 6 21 16 21 18 0 164 139 164 156 0 7 9 14
20 17 14 3 20 14 20 31 0 21 5 26 25 26 16 0 25 6 25 15 0 8 34 47 75 87 41
40 75 78 75 85 0 7 5 13 11 13 13 0 59 46 59 59 0 5 27 36 60 70 33 34 63 73
66 86 3 14 11 25 17 25 15 0 107 99 107 116 0 8 5 14 10 14 6 0 10 7 10 15 0
8 5 15 10 15 6 0 10 9 10 20 0 11 7 20 15 20 8 0 15 4 15 10 0 5 18 26 40 46
22 21 40 45 40 55 0 9 7 19 15 23 8 3 15 12 15 19 0 8 20 35 44 61 24 25 47
59 51 76 4 16 13 30 21 30 8 0 14 9 14 20 0 11 7 20 15 20 8 0 18 12 21 27 4
15 18 37 31 49 12 12 23 28 23 35 0 8 16 28 35 44 19 17 35 37 35 46 0 9 9 24
20 34 11 10 20 26 20 35 0 10 7 20 15 24 8 3 15 12 15 20 0 8 14 27 30 43 17
15 30 35 30 44 0 9 6 19 14 22 8 3 17 19 21 36 4 17 13 31 21 31 8 0 14 7 14
15 0 8 9 29 20 47 11 18 20 38 20 45 0 7 11 24 25 39 14 15 25 33 25 40 0 8 5
14 10 14 6 0 10 9 10 20 0 11 5 20 10 20 6 0 10 6 10 14 0 8 7 16 14 19 8 3
18 22 22 42 3 20 13 39 20 42 8 3 14 14 14 24 0 10 4 19 8 19 11 0 32 45 32
67 0 8 11 24 25 35 14 11 25 28 25 39 0 10 5 19 10 19 6 0 10 9 10 20 0 11 5
20 10 20 6 0 10 9 10 19 0 10 6 21 14 24 8 3 17 24 21 47 4 23 13 44 21 47 8
3 14 18 14 33 0 15 6 30 14 33 8 3 17 19 21 36 4 17 11 31 15 31 5 0 16 17 25
38 9 20 21 45 26 54 5 10 9 29 9 43 0 14 5 25 10 25 6 0 10 9 10 19 0 10 6 21
14 24 7 3 16 28 20 55 4 30 12 52 21 56 8 3 15 16 15 29 0 14 6 30 14 36 8 7
17 27 20 45 4 19 13 39 21 46 8 7 15 23 15 36 0 13 5 24 10 24 6 0 10 11 10
24 0 14 5 28 10 31 6 3 10 19 10 36 0 16 5 29 10 29 6 0 10 18 10 39 0 25 5
41 15 45 8 3 15 15 15 27 0 29 22 89 32 89 4 0 8 16 8 35 0 22 5 35 13 35 8 0
19 22 27 51 8 27 18 52 22 55 4 3 8 18 8 34 0 16 5 32 10 35 6 3 10 23 10 44
0 21 6 44 14 50 7 6 17 40 21 76 3 35 13 69 21 76 8 6 14 26 14 44 0 18 7 45
15 61 7 15 17 51 21 81 3 29 12 58 20 64 8 6 14 29 14 50 0 22 5 39 10 39 6 0
10 18 10 39 0 22 5 43 10 46 6 3 10 31 10 61 0 30 5 54 10 54 6 0 10 22 10 49
0 29 6 53 14 60 9 8 16 48 21 126 5 83 11 115 21 119 10 4 14 23 14 62 0 37 5
63 15 74 10 11 16 53 21 145 5 87 12 134 21 143 9 9 13 41 13 98 0 49 4 84 10
84 6 0 10 46 10 119 0 69 4 122 10 126 6 4 10 93 10 236 0 146 4 229 10 229 6
0 10 30 10 70 0 40 -4 70 -10 70 -6 0 -10 83 -10 229 0 143 -4 232 -10 236 -6
4 -10 63 -10 145 0 82 -4 141 -10 145 -5 3 -10 44 -10 91 0 65 -3 84 -14 84
-11 0 -15 31 -21 140 -5 100 -11 143 -21 151 -9 8 -14 33 -14 75 0 48 -3 64
-14 64 -10 0 -16 26 -21 109 -5 80 -11 111 -21 115 -10 4 -14 25 -14 81 0 43
-4 75 -10 75 -5 0 -10 18 -10 39 0 22 -4 43 -10 46 -5 3 -10 31 -10 61 0 30
-4 54 -10 54 -5 0 -10 18 -10 40 0 25 -5 43 -14 46 -7 3 -16 26 -20 52 -3 26
-13 60 -21 76 -8 15 -15 39 -15 52 0 14 -6 27 -14 30 -9 3 -16 30 -20 73 -4
38 -13 77 -21 87 -8 11 -15 38 -15 62 0 23 -4 42 -10 42 -5 0 -10 13 -10 29 0
17 -4 33 -10 36 -5 3 -10 17 -10 30 0 13 -4 27 -10 30 -5 3 -10 15 -10 26 0
11 -7 22 -15 25 -8 4 -15 17 -15 30 0 13 -9 39 -20 59 -11 20 -20 47 -20 60 0
16 -6 25 -15 25 -11 0 -15 12 -15 44 0 25 -4 48 -10 51 -5 3 -10 19 -10 36 0
16 -4 29 -10 29 -5 0 -10 9 -10 20 0 11 -4 20 -10 20 -5 0 -10 13 -10 29 0 16
-6 36 -14 43 -7 8 -17 29 -21 47 -4 18 -13 35 -21 38 -8 3 -14 16 -14 29 0 14
-6 24 -14 24 -9 0 -16 18 -21 55 -4 38 -11 55 -21 55 -9 0 -14 11 -14 35 0 19
-4 35 -10 35 -5 0 -10 9 -10 20 0 11 -4 20 -10 20 -5 0 -10 9 -10 19 0 11 -4
23 -10 26 -5 3 -10 15 -10 26 0 10 -6 19 -14 19 -9 0 -17 15 -21 39 -4 22 -13
45 -21 52 -8 6 -14 18 -14 26 0 7 -6 16 -14 19 -8 3 -16 27 -20 55 -5 33 -11
49 -21 49 -9 0 -15 10 -15 25 0 14 -4 25 -10 25 -5 0 -10 8 -10 18 0 10 -9 28
-20 40 -11 12 -20 28 -20 37 0 8 -7 15 -15 15 -8 0 -15 7 -15 17 0 21 -48 123
-58 123 -4 0 -13 20 -20 45 -7 25 -16 45 -22 45 -5 0 -10 9 -10 20 0 11 -4 20
-8 20 -5 0 -15 12 -23 28 -7 15 -24 37 -36 49 -13 12 -23 28 -23 36 0 7 -9 23
-20 35 -11 12 -20 28 -20 37 0 8 -6 15 -14 15 -8 0 -16 15 -20 38 -3 20 -17
47 -31 61 -14 13 -25 29 -25 35 0 7 -9 21 -20 31 -11 10 -20 23 -20 29 0 6
-11 23 -24 37 -13 14 -31 40 -40 57 -9 18 -21 32 -26 32 -6 0 -10 9 -10 20 0
11 -4 20 -9 20 -5 0 -16 15 -24 33 -9 18 -27 42 -41 55 -14 12 -26 26 -26 32
0 5 -7 10 -15 10 -8 0 -15 9 -15 20 0 11 -7 20 -15 20 -9 0 -15 9 -15 24 0 15
-15 40 -40 65 -22 22 -40 46 -40 52 0 6 -11 22 -25 35 -14 13 -25 29 -25 37 0
8 -18 30 -40 51 -22 20 -40 43 -40 51 0 7 -11 22 -25 33 -14 11 -25 24 -25 29
0 5 -9 15 -20 23 -11 8 -20 19 -20 25 -1 13 -78 95 -90 95 -6 0 -10 7 -10 16
0 9 -9 18 -20 21 -11 3 -20 12 -20 19 0 8 -4 14 -8 14 -5 0 -15 12 -23 28 -7
15 -33 46 -56 69 -24 23 -43 46 -43 52 0 6 -7 11 -15 11 -8 0 -15 7 -15 15 0
17 -171 195 -188 195 -7 0 -12 5 -12 11 0 14 -135 149 -149 149 -6 0 -11 5
-11 11 0 14 -174 189 -189 189 -6 0 -11 7 -11 15 0 8 -7 15 -15 15 -8 0 -50
36 -94 80 -44 44 -92 82 -106 86 -14 3 -25 10 -25 15 0 13 -103 109 -117 109
-7 0 -13 5 -13 10 0 6 -5 10 -11 10 -6 0 -20 11 -31 25 -11 14 -25 25 -33 25
-7 0 -37 25 -66 55 -30 30 -60 55 -67 55 -8 0 -27 14 -42 30 -15 17 -35 30
-44 30 -8 0 -20 9 -26 20 -6 11 -17 20 -25 20 -8 0 -15 7 -15 15 0 8 -7 15
-15 15 -8 0 -25 9 -37 20 -13 12 -30 27 -39 35 -9 8 -20 15 -25 15 -6 0 -19 8
-30 18 -10 10 -34 25 -51 32 -18 8 -33 21 -33 27 0 7 -7 13 -16 13 -9 0 -32
16 -51 35 -19 19 -41 35 -47 35 -7 0 -21 9 -31 20 -10 11 -26 20 -37 20 -10 0
-18 5 -18 10 0 6 -8 10 -18 10 -9 0 -23 9 -30 20 -7 11 -21 20 -32 20 -11 0
-20 4 -20 10 0 5 -16 17 -35 26 -19 9 -35 20 -35 25 0 5 -8 9 -18 9 -11 0 -27
9 -37 20 -20 22 -71 50 -92 50 -7 0 -13 5 -13 10 0 6 -9 10 -19 10 -10 0 -21
7 -25 15 -3 8 -15 15 -26 15 -11 0 -28 9 -37 20 -10 11 -24 20 -31 20 -7 0
-20 7 -28 15 -9 8 -27 18 -42 22 -15 3 -31 12 -37 19 -14 17 -82 54 -100 54
-8 0 -15 5 -15 10 0 6 -9 10 -19 10 -10 0 -21 7 -25 15 -3 9 -18 15 -36 15
-18 0 -37 8 -47 20 -10 11 -23 20 -29 20 -6 0 -17 7 -24 15 -7 8 -30 18 -51
21 -23 4 -39 12 -39 20 0 8 -9 14 -20 14 -11 0 -20 5 -20 10 0 6 -13 10 -29
10 -17 0 -33 5 -36 10 -3 6 -15 10 -26 10 -10 0 -19 5 -19 10 0 6 -11 10 -25
10 -15 0 -25 6 -25 14 0 9 -15 17 -39 21 -22 4 -42 13 -45 21 -3 8 -14 14 -25
14 -10 0 -21 6 -24 14 -3 7 -28 16 -55 20 -30 4 -52 12 -56 21 -3 9 -18 15
-36 15 -16 0 -30 5 -30 10 0 6 -13 10 -29 10 -17 0 -33 5 -36 10 -3 6 -19 10
-36 10 -16 0 -29 5 -29 10 0 6 -11 10 -25 10 -14 0 -25 6 -25 13 0 12 -64 37
-95 37 -8 0 -15 5 -15 10 0 6 -13 10 -29 10 -16 0 -34 7 -41 15 -7 8 -23 15
-36 15 -12 0 -26 5 -29 10 -3 6 -24 10 -45 10 -21 0 -42 5 -45 10 -3 6 -19 10
-36 10 -16 0 -29 5 -29 10 0 6 -17 10 -39 10 -22 0 -44 6 -51 15 -6 8 -38 17
-70 21 -36 4 -61 12 -64 20 -3 8 -15 14 -26 14 -11 0 -20 4 -20 9 0 9 -119 31
-168 31 -17 0 -32 6 -36 15 -4 11 -20 15 -56 15 -27 0 -50 5 -50 10 0 6 -24
10 -54 10 -30 0 -58 5 -61 10 -3 6 -24 10 -46 10 -21 0 -39 5 -39 10 0 6 -19
10 -41 10 -25 0 -46 6 -53 15 -7 10 -40 16 -103 21 -63 5 -94 11 -97 20 -3 9
-22 14 -51 14 -25 0 -56 7 -68 15 -16 10 -72 16 -212 21 -137 5 -193 11 -203
21 -10 10 -53 13 -172 13 -95 0 -161 4 -165 10 -4 6 -73 10 -175 10 -102 0
-171 4 -175 10 -4 6 -102 10 -260 10 -158 0 -256 -4 -260 -10z m705 -35 c118
-8 271 -20 340 -27 69 -7 148 -11 175 -10 79 4 488 -60 640 -99 44 -11 109
-27 145 -35 35 -7 127 -32 203 -55 77 -22 141 -38 143 -36 2 2 -31 14 -73 27
-136 39 -100 38 54 -2 154 -40 368 -107 562 -177 63 -23 126 -41 141 -41 15 0
59 -11 99 -25 78 -27 84 -30 149 -64 24 -12 51 -20 60 -17 9 3 24 1 32 -5 12
-8 9 -9 -10 -4 -15 3 -7 -4 20 -19 25 -14 50 -25 55 -25 6 0 -2 7 -17 15 -34
18 -37 27 -5 15 98 -39 341 -156 419 -202 28 -16 52 -28 55 -25 2 2 -14 14
-36 27 -23 12 -39 25 -36 27 2 3 37 -15 77 -39 40 -24 110 -63 156 -86 45 -23
89 -49 98 -57 8 -8 20 -13 27 -10 7 2 64 -27 127 -66 63 -38 126 -75 140 -81
88 -40 220 -117 220 -130 0 -4 10 -11 23 -15 12 -3 30 -13 40 -22 10 -9 23
-17 30 -18 28 -4 196 -118 290 -196 32 -27 75 -57 95 -68 35 -19 100 -64 216
-148 28 -20 57 -44 64 -54 7 -10 19 -18 27 -18 8 0 21 -10 29 -21 8 -12 30
-31 49 -43 18 -11 42 -29 53 -39 10 -10 82 -70 159 -133 250 -206 645 -589
815 -789 47 -55 112 -127 145 -161 33 -33 85 -91 115 -128 30 -37 89 -109 131
-159 41 -51 94 -119 117 -153 23 -33 53 -73 67 -88 14 -16 44 -57 65 -92 21
-35 57 -85 79 -111 36 -41 138 -196 190 -286 9 -16 28 -45 44 -64 29 -39 36
-63 12 -43 -24 20 -18 5 7 -16 13 -12 18 -13 13 -4 -8 13 -7 13 8 1 9 -7 17
-20 17 -29 0 -8 28 -58 62 -111 34 -53 89 -150 123 -216 34 -66 90 -169 124
-229 34 -59 60 -110 57 -113 -2 -3 -12 9 -21 26 -8 17 -18 31 -20 31 -9 0 33
-76 49 -89 9 -8 16 -21 16 -30 0 -9 8 -28 17 -41 26 -37 118 -229 133 -275 12
-40 72 -184 117 -284 35 -77 75 -183 70 -188 -3 -2 -15 21 -27 52 -12 31 -25
54 -27 51 -3 -2 9 -33 26 -69 42 -87 91 -209 91 -225 0 -7 6 -23 14 -35 16
-24 96 -259 96 -279 0 -9 -3 -8 -10 2 -8 11 -9 7 -4 -15 9 -42 26 -68 19 -30
-5 27 -5 28 5 7 5 -13 8 -27 5 -31 -2 -4 3 -30 11 -57 9 -27 19 -62 24 -79 4
-16 24 -84 43 -150 40 -136 87 -334 86 -362 0 -10 -12 20 -25 67 -13 47 -21
68 -18 46 3 -21 17 -77 30 -124 43 -146 123 -607 124 -707 0 -32 3 -45 9 -36
5 8 11 -29 16 -95 3 -60 10 -127 15 -149 4 -22 10 -101 13 -175 l5 -135 -13
120 -14 120 5 -100 c3 -55 9 -156 14 -225 5 -69 9 -215 9 -325 0 -179 -4 -272
-23 -525 -9 -113 1 -71 14 63 7 65 14 116 17 114 6 -6 -13 -225 -38 -432 -36
-306 -89 -604 -150 -853 -22 -90 -38 -166 -36 -168 3 -3 13 28 22 68 10 40 20
68 22 62 4 -12 -22 -123 -57 -244 -10 -36 -38 -132 -61 -215 -23 -82 -57 -190
-75 -238 -38 -100 -42 -118 -14 -67 11 19 19 31 20 26 0 -11 -66 -199 -86
-243 -8 -17 -14 -35 -14 -40 0 -9 -53 -141 -72 -180 -6 -11 -8 -26 -4 -31 6
-10 -37 -130 -68 -192 -7 -14 -20 -41 -28 -60 -9 -19 -34 -74 -56 -123 -23
-48 -39 -93 -36 -101 3 -7 -35 -92 -84 -188 -48 -96 -86 -181 -84 -188 3 -7 0
-10 -6 -6 -7 4 -18 -7 -27 -26 -14 -29 -14 -30 0 -14 8 11 15 16 15 10 0 -14
-18 -39 -30 -40 -23 -3 -24 -5 -12 -12 16 -10 5 -42 -14 -42 -8 0 -14 -10 -14
-24 0 -13 -8 -34 -18 -47 -52 -68 -151 -241 -145 -255 3 -9 -3 -24 -16 -35
-11 -11 -21 -26 -21 -33 0 -7 -13 -28 -30 -46 -31 -35 -40 -57 -18 -44 8 4 10
3 5 -2 -5 -5 -14 -9 -20 -9 -7 0 -12 -10 -13 -21 -1 -26 -58 -121 -119 -200
-25 -31 -45 -66 -45 -77 0 -11 -3 -17 -7 -14 -3 4 -15 0 -25 -10 -19 -17 -25
-39 -8 -28 21 13 8 -9 -35 -59 -25 -29 -45 -58 -45 -63 0 -5 -10 -18 -21 -29
-12 -10 -28 -34 -35 -51 -8 -18 -19 -32 -25 -30 -6 1 -14 -4 -17 -12 -3 -9 0
-11 9 -6 20 13 -44 -73 -127 -169 -73 -84 -86 -104 -61 -90 6 4 10 5 7 1 -3
-3 -29 -32 -57 -64 -29 -32 -76 -90 -105 -130 -70 -95 -196 -242 -280 -326
-37 -38 -68 -72 -68 -76 0 -17 -483 -500 -515 -515 -19 -10 -35 -19 -35 -22 0
-3 6 -2 13 2 8 5 8 2 -2 -9 -7 -9 -19 -17 -27 -17 -7 0 -56 -44 -109 -97 -52
-54 -95 -93 -95 -87 0 5 3 14 8 20 4 5 -9 -5 -28 -23 -77 -73 -102 -93 -131
-108 -16 -9 -27 -20 -24 -24 2 -5 -2 -14 -10 -21 -12 -10 -15 -10 -15 1 -1 9
-8 5 -20 -9 -20 -24 -40 -40 -138 -107 -30 -21 -116 -86 -193 -146 -77 -60
-144 -107 -148 -105 -4 3 -18 -6 -29 -19 -12 -14 -28 -25 -37 -25 -8 0 -19 -9
-25 -20 -6 -11 -16 -20 -21 -20 -6 0 -25 -11 -43 -25 -17 -14 -36 -29 -41 -33
-6 -4 -19 -14 -30 -22 -11 -9 -16 -10 -11 -2 17 28 -19 7 -186 -111 -38 -26
-74 -47 -82 -47 -8 0 -16 -7 -20 -15 -3 -8 -17 -15 -30 -15 -14 0 -55 -19 -91
-43 -112 -73 -136 -87 -147 -87 -6 0 -16 -7 -23 -16 -6 -9 -24 -17 -38 -17
-15 0 -30 -4 -34 -10 -3 -6 -1 -7 5 -3 7 4 12 5 12 2 0 -3 -10 -10 -21 -17
-15 -8 -19 -8 -15 0 13 20 -12 11 -64 -24 -29 -19 -54 -35 -56 -35 -2 0 -49
-25 -104 -56 -57 -32 -107 -53 -116 -50 -8 3 -13 2 -10 -3 3 -5 -1 -12 -10
-15 -9 -4 -13 -2 -8 5 9 15 7 14 -137 -58 -121 -60 -152 -75 -273 -127 -69
-31 -86 -33 -33 -5 48 25 48 34 0 13 -21 -9 -72 -30 -113 -46 -41 -17 -87 -37
-102 -44 -14 -8 -35 -14 -45 -14 -10 0 -23 -4 -29 -9 -10 -11 -230 -91 -247
-91 -7 1 -1 7 13 15 38 21 26 19 -105 -26 -152 -51 -100 -36 -534 -155 -69
-18 -126 -32 -129 -30 -2 2 38 18 90 35 51 17 82 28 68 26 -63 -13 -387 -97
-405 -105 -11 -5 -45 -12 -75 -15 -30 -4 -136 -20 -235 -35 -333 -53 -525 -64
-1195 -64 -669 -1 -729 2 -1177 69 -240 36 -313 50 -586 116 -93 22 -171 38
-173 36 -3 -2 28 -12 68 -22 85 -21 132 -38 78 -29 -35 5 -272 67 -410 106
-41 11 -136 42 -210 69 -172 61 -186 65 -125 35 28 -14 47 -25 42 -25 -20 -2
-309 105 -481 178 -106 46 -134 52 -66 16 129 -69 -78 15 -308 126 -91 43
-167 78 -168 76 -2 -1 17 -13 42 -26 24 -13 43 -26 40 -28 -7 -8 -281 133
-336 173 -8 6 -37 23 -65 38 l-50 27 30 -27 c24 -21 11 -17 -60 21 -49 26 -97
53 -106 61 -8 8 -19 14 -24 14 -4 0 -30 14 -57 30 -27 17 -53 28 -58 25 -8 -5
-51 20 -220 130 -36 24 -83 50 -103 58 -37 16 -223 141 -242 163 -16 18 -131
93 -161 104 -27 11 -54 31 -142 105 -26 22 -38 30 -28 17 32 -37 8 -25 -66 36
-39 31 -99 77 -134 102 -60 43 -213 169 -338 277 -34 29 -91 76 -128 105 -37
29 -67 56 -67 60 -1 4 -49 53 -108 110 -59 57 -151 148 -206 203 -54 55 -175
178 -270 272 -94 95 -168 176 -164 179 3 4 -36 52 -88 106 -52 55 -95 103 -95
108 0 4 -45 63 -99 130 -55 68 -97 128 -95 134 2 6 -14 29 -36 51 -22 21 -40
45 -40 52 0 8 -6 16 -14 19 -25 10 -87 97 -75 105 8 4 3 13 -15 24 -14 10 -26
22 -26 29 0 6 -18 34 -41 61 -65 80 -145 203 -118 180 23 -20 23 -20 -2 15
-14 19 -43 60 -64 90 -21 30 -52 75 -70 100 -39 55 -54 84 -26 50 40 -49 20
-7 -42 88 -97 148 -134 207 -152 243 -17 36 -14 33 31 -26 8 -11 6 -4 -4 15
-48 85 -144 256 -152 270 -38 63 -70 132 -65 140 3 5 -31 84 -76 177 -87 179
-119 251 -119 261 1 4 12 -14 26 -40 13 -27 26 -48 28 -48 5 0 -71 180 -115
271 -8 18 -105 275 -114 304 -3 11 3 4 14 -15 29 -50 26 -34 -13 67 -68 180
-203 619 -193 629 2 2 14 -30 27 -71 37 -119 34 -80 -5 56 -19 68 -44 165 -55
214 -10 50 -26 119 -34 155 -39 173 -92 480 -102 590 -3 40 -2 39 10 -15 16
-71 20 -45 6 40 -35 216 -70 723 -70 1020 0 298 35 812 71 1049 11 71 18 131
15 133 -2 2 -9 -29 -16 -69 -13 -83 -18 -102 -19 -73 -1 30 37 294 49 335 5
19 21 98 35 175 15 77 30 149 35 160 4 11 16 61 25 110 9 50 23 112 32 139 9
28 15 64 15 80 -2 46 84 343 159 553 10 29 16 59 13 66 -3 8 10 54 29 103 19
49 42 109 50 134 8 25 22 59 30 75 9 17 27 57 41 91 14 33 37 87 51 120 22 51
23 56 5 34 -11 -14 5 28 35 93 30 64 55 121 55 126 0 5 7 14 15 21 8 7 15 23
15 35 0 12 6 28 14 35 8 6 16 26 18 43 2 19 8 31 15 30 7 -2 10 3 7 11 -3 8
15 52 39 97 59 110 86 164 141 279 25 52 66 127 90 165 25 39 62 97 83 130 21
33 38 71 38 83 1 13 9 28 18 33 9 6 17 17 17 25 0 8 9 22 20 31 11 10 20 21
20 25 0 4 18 33 40 64 22 32 40 63 40 70 0 16 80 136 102 152 10 7 18 19 18
26 0 7 11 25 25 40 14 15 23 32 19 37 -3 5 0 8 7 7 7 -2 14 7 15 19 1 12 14
38 30 57 31 37 58 73 152 201 32 45 89 114 126 155 38 41 72 84 76 95 4 11 40
55 80 97 39 43 69 81 66 86 -3 5 43 58 102 118 59 60 93 101 77 90 -17 -10 2
13 40 51 39 38 97 99 130 136 33 37 66 67 73 67 7 0 17 11 22 25 5 14 16 25
24 25 9 0 20 10 27 21 6 12 27 35 47 53 20 17 72 66 116 109 43 44 76 71 72
60 -4 -10 19 9 51 42 33 33 79 76 103 95 24 19 75 62 114 95 39 33 109 91 156
128 47 37 117 94 155 127 39 33 102 81 140 107 75 51 89 62 141 106 18 16 38
26 43 23 5 -3 15 2 22 12 13 16 13 16 -6 2 -18 -14 -19 -14 -7 2 8 9 19 15 26
12 6 -2 23 7 36 21 13 14 32 25 42 25 10 0 21 6 24 14 3 7 74 54 158 105 84
50 159 97 166 106 7 8 18 15 24 15 6 0 19 9 29 20 9 11 23 20 32 20 17 0 74
31 210 115 98 61 178 105 190 105 3 0 3 -6 0 -12 -4 -7 -1 -6 7 2 13 16 370
200 385 200 4 -1 -9 -10 -29 -21 -21 -11 -38 -22 -38 -24 0 -5 83 37 130 65
21 12 290 140 318 151 35 13 26 2 -15 -20 -64 -34 -32 -23 87 29 63 28 122 50
132 50 10 0 21 7 24 15 4 8 12 15 18 15 7 0 71 22 143 48 72 27 148 52 170 55
22 4 73 18 114 31 256 83 548 168 558 162 7 -4 170 27 281 54 101 25 270 50
345 51 44 1 94 5 110 9 18 5 -4 6 -55 4 -74 -3 -79 -2 -35 6 104 18 304 40
410 45 61 3 155 10 210 15 272 30 830 37 1145 15z"/>
<path d="M9690 17954 c-323 -16 -736 -71 -1092 -145 -247 -51 -271 -54 -173
-25 127 39 66 30 -135 -19 -215 -52 -276 -70 -460 -132 -172 -58 -172 -58
-130 -34 19 11 32 20 29 21 -7 0 -133 -43 -174 -60 -39 -16 -55 -22 -145 -55
-107 -38 -149 -54 -198 -76 -51 -23 -69 -24 -29 -3 16 9 27 18 24 20 -2 3 -62
-23 -133 -57 -189 -90 -232 -109 -243 -109 -6 0 -11 -4 -11 -8 0 -8 -84 -52
-98 -52 -4 0 16 14 43 30 28 16 46 30 42 30 -11 0 -259 -130 -278 -146 -8 -8
-25 -14 -37 -14 -12 0 -26 -9 -32 -20 -8 -15 -17 -19 -31 -15 -12 4 -28 1 -37
-8 -9 -7 -39 -24 -67 -37 -27 -13 -95 -51 -150 -85 -55 -34 -106 -65 -114 -70
-12 -7 -22 -9 -68 -14 -7 0 -13 -8 -13 -16 0 -8 -5 -15 -10 -15 -6 0 -61 -35
-123 -77 -61 -42 -119 -77 -127 -78 -19 -2 -91 -47 -109 -69 -7 -9 -19 -16
-26 -16 -7 0 -24 -11 -39 -25 -15 -14 -32 -22 -38 -19 -6 4 -8 2 -5 -3 8 -13
-18 -37 -31 -29 -6 3 -56 -31 -112 -77 -57 -45 -139 -109 -184 -142 -136 -100
-199 -149 -301 -237 -22 -19 -62 -51 -90 -71 -27 -20 -88 -75 -134 -122 -46
-46 -86 -83 -90 -81 -4 3 -47 -36 -96 -87 -50 -50 -82 -85 -72 -78 28 22 19 7
-15 -25 -18 -16 -26 -20 -18 -9 8 11 -11 -7 -41 -39 -30 -32 -59 -68 -66 -80
-6 -12 -55 -61 -107 -109 -52 -49 -130 -131 -172 -183 -43 -52 -82 -94 -87
-94 -4 0 -6 -4 -3 -9 4 -5 -8 -22 -25 -38 -16 -15 -82 -97 -146 -182 -63 -85
-132 -172 -153 -195 -20 -22 -53 -66 -73 -96 -54 -83 -117 -171 -148 -208 -30
-34 -37 -48 -17 -36 15 10 10 1 -89 -144 -86 -126 -106 -161 -85 -148 18 11
14 0 -5 -15 -11 -10 -14 -10 -9 -1 4 6 5 12 2 12 -3 0 -13 -14 -22 -31 -8 -17
-11 -28 -5 -25 14 9 14 0 0 -26 -9 -17 -13 -18 -20 -7 -6 10 -9 8 -9 -9 0 -13
-8 -35 -19 -50 -26 -38 -124 -200 -145 -239 -25 -49 -12 -40 18 12 15 25 29
45 32 45 11 0 -56 -118 -71 -123 -8 -4 -15 -13 -15 -21 0 -8 -36 -80 -80 -160
-76 -136 -110 -211 -54 -118 37 62 39 51 3 -20 -54 -107 -187 -395 -193 -420
-4 -13 7 2 24 32 44 79 25 21 -26 -82 -24 -48 -44 -97 -44 -108 0 -11 -4 -20
-9 -20 -5 0 -12 -12 -16 -27 -3 -16 -28 -88 -56 -162 -53 -145 -58 -165 -29
-111 29 52 25 35 -26 -106 -25 -71 -52 -154 -60 -184 -8 -30 -28 -100 -44
-155 -42 -145 -82 -307 -77 -312 3 -2 13 26 23 63 10 37 19 63 21 57 2 -6 -7
-55 -21 -109 -92 -367 -189 -1072 -185 -1348 2 -82 3 -76 10 53 5 79 11 149
14 155 3 6 3 -31 0 -83 -3 -52 -6 -239 -7 -415 -1 -192 -4 -285 -8 -231 l-6
90 -2 -88 c-1 -49 7 -188 18 -310 38 -412 87 -725 166 -1065 39 -168 42 -215
5 -71 -13 49 -25 88 -27 86 -6 -6 31 -159 78 -322 22 -77 43 -153 48 -170 4
-16 35 -111 68 -210 33 -99 59 -181 57 -183 -1 -1 -19 42 -40 98 -21 55 -40
98 -42 96 -3 -3 39 -124 87 -246 11 -30 28 -75 37 -100 8 -24 37 -95 64 -157
58 -133 70 -163 64 -163 -2 0 -16 27 -31 60 -29 66 -44 77 -18 14 9 -21 44
-98 79 -170 35 -73 66 -143 70 -156 4 -13 11 -25 15 -28 12 -8 82 -153 71
-145 -17 10 -14 0 20 -62 18 -32 42 -77 54 -99 12 -23 29 -52 38 -65 20 -27
22 -43 5 -33 -18 11 145 -268 226 -386 6 -8 0 -6 -14 5 l-24 20 16 -25 c9 -14
22 -24 28 -22 6 1 9 -2 5 -8 -3 -5 42 -81 101 -167 59 -87 94 -147 79 -133
l-29 25 21 -30 c12 -16 33 -41 47 -54 14 -14 26 -29 26 -34 0 -5 11 -23 25
-39 14 -16 22 -35 18 -41 -3 -7 -2 -9 2 -4 5 4 17 0 27 -10 19 -17 25 -39 7
-27 -7 4 -7 -1 1 -16 6 -12 17 -19 25 -17 8 4 15 -5 18 -21 3 -15 32 -57 64
-94 68 -78 214 -260 261 -325 18 -25 70 -87 115 -136 45 -50 75 -87 67 -82 -8
4 3 -11 25 -35 78 -83 533 -536 601 -598 38 -35 81 -80 97 -99 15 -20 27 -32
27 -26 0 6 -7 16 -15 23 -8 7 -15 18 -15 24 0 11 18 -6 157 -143 35 -34 72
-64 84 -66 11 -2 55 -35 96 -72 126 -114 201 -170 178 -133 -10 16 1 11 16 -7
10 -11 10 -14 2 -9 -7 4 -13 5 -13 3 0 -2 26 -21 57 -42 32 -21 78 -54 103
-74 25 -20 54 -43 65 -51 l20 -15 -20 25 -20 24 21 -14 c31 -22 134 -100 185
-141 24 -20 62 -46 84 -58 40 -23 35 -17 -27 32 -22 18 -22 18 10 0 18 -10 54
-34 80 -54 79 -61 255 -172 277 -175 19 -2 45 -15 150 -77 11 -6 43 -25 70
-43 28 -17 61 -36 75 -43 l25 -12 -21 18 c-12 10 -30 24 -40 31 -17 12 124
-60 221 -113 23 -12 52 -28 65 -35 14 -7 32 -17 40 -21 71 -40 153 -79 157
-76 2 3 -17 15 -42 28 -26 13 -49 27 -52 32 -3 4 37 -13 89 -38 156 -78 251
-121 415 -189 83 -34 93 -32 18 4 -95 45 -50 35 84 -20 68 -27 127 -50 133
-50 5 0 24 -7 41 -15 46 -21 320 -115 324 -111 2 2 -24 15 -59 29 -80 33 -62
35 23 3 149 -56 791 -217 806 -202 3 2 -21 10 -53 17 -31 7 -52 15 -45 17 7 2
43 -3 79 -11 218 -52 677 -113 1024 -137 505 -35 1333 29 1816 141 119 27 123
22 7 -11 -55 -16 -95 -29 -90 -29 14 -1 248 52 392 89 211 54 265 69 383 110
129 44 171 53 70 14 -36 -14 -69 -29 -74 -34 -12 -12 458 152 618 216 14 5 17
4 12 -4 -11 -18 -5 -16 96 29 51 23 104 43 118 46 14 3 36 14 49 24 13 11 32
19 42 19 10 0 21 5 24 10 6 9 130 70 143 70 3 0 -3 -7 -14 -15 -38 -28 2 -14
81 30 44 25 91 49 105 55 14 5 32 14 40 19 24 15 110 57 175 86 32 14 66 32
75 39 8 8 26 17 40 21 14 4 33 16 43 26 10 11 24 19 31 19 8 0 19 7 26 16 17
19 56 41 46 25 -8 -12 94 45 161 91 23 15 46 28 51 28 5 0 15 7 22 15 7 8 38
28 70 44 31 16 88 50 126 75 145 97 354 243 376 263 13 11 33 26 46 32 19 10
83 62 142 115 8 7 47 37 85 66 39 29 102 81 140 114 39 34 86 74 105 90 108
88 417 388 550 536 47 52 121 133 165 181 138 148 365 426 401 491 7 11 17 25
23 31 6 6 11 19 11 30 0 10 5 15 10 12 6 -3 14 5 20 20 5 14 17 28 25 31 8 4
15 12 15 19 0 7 26 44 58 83 31 39 81 111 111 161 30 50 58 91 63 91 5 0 12
10 17 23 5 13 27 50 50 82 22 32 38 62 35 67 -3 5 3 19 13 31 11 12 23 29 26
37 4 8 34 58 67 110 33 52 68 109 77 125 16 29 16 30 -3 15 -18 -14 -18 -14
-1 6 9 11 17 25 17 31 0 5 9 18 20 28 11 10 20 26 20 35 0 10 6 23 14 29 8 7
23 29 33 49 11 20 37 69 58 107 26 47 33 65 20 55 -15 -11 -12 -3 10 35 33 57
175 341 175 350 0 3 -4 3 -10 0 -16 -10 -12 3 26 79 45 90 62 128 113 247 56
134 56 133 43 125 -16 -10 -17 -13 29 105 48 121 62 162 129 364 27 82 48 151
46 153 -2 2 -12 -20 -21 -48 -9 -28 -19 -49 -21 -47 -3 3 16 74 41 158 67 223
177 673 174 712 0 7 -9 -15 -19 -48 -24 -79 -25 -57 -1 57 48 228 75 421 113
778 21 205 16 710 -11 975 -35 348 -64 555 -112 788 -25 119 -20 140 6 27 10
-44 20 -78 23 -76 14 14 -131 603 -222 901 -4 11 2 2 13 -20 30 -62 25 -37
-23 102 -57 168 -60 176 -117 328 -62 168 -64 177 -39 135 16 -27 19 -30 14
-10 -7 27 -86 207 -110 252 -8 14 -14 32 -14 40 0 8 -5 19 -11 25 -6 6 -26 46
-45 89 -25 60 -29 73 -13 54 11 -14 19 -20 17 -15 -8 20 -130 261 -169 335
-22 41 -33 66 -25 56 25 -31 18 -6 -13 49 -43 77 -119 205 -151 255 -16 25
-29 50 -29 55 0 6 9 -5 20 -22 12 -18 23 -33 26 -33 7 0 -52 102 -113 195 -30
45 -54 87 -54 93 0 5 -6 12 -14 15 -8 3 -20 16 -27 29 -12 22 -11 22 6 8 18
-14 18 -13 0 17 -11 18 -50 75 -88 125 -38 51 -88 122 -110 159 -82 129 -93
144 -140 202 -22 26 -37 50 -34 53 3 3 -24 44 -61 90 -37 46 -85 109 -107 141
-22 31 -87 111 -145 177 -58 67 -137 160 -177 207 -40 48 -154 167 -254 265
-100 99 -225 223 -278 278 -53 54 -123 118 -155 142 -33 24 -87 69 -120 99
-118 106 -236 206 -303 255 -37 27 -76 56 -85 64 -10 9 -34 26 -55 39 -21 13
-45 32 -52 41 -8 9 -24 22 -35 28 -19 9 -18 7 4 -18 21 -24 18 -23 -16 6 -40
35 -120 95 -238 178 -34 24 -80 52 -103 62 -24 11 -43 24 -43 29 0 5 -10 13
-21 16 -12 4 -42 23 -66 41 -60 45 -99 65 -58 28 36 -31 20 -24 -55 26 -50 34
-239 152 -300 188 -17 10 -14 4 10 -17 l35 -32 -53 33 c-65 40 -63 39 -243
138 -80 44 -158 80 -172 80 -15 0 -102 35 -194 78 -176 83 -203 94 -203 87 0
-3 21 -14 46 -25 25 -12 44 -23 42 -26 -3 -2 -63 21 -134 52 -143 63 -180 77
-337 135 -117 42 -146 49 -82 18 47 -22 30 -26 -20 -5 -87 37 -742 222 -751
213 -2 -2 25 -12 61 -22 96 -26 73 -29 -31 -4 -220 52 -695 124 -1014 154
-167 16 -760 28 -940 19z m565 -1624 c464 -20 895 -85 1289 -196 48 -14 90
-23 92 -21 2 2 -39 16 -91 32 -53 15 -93 30 -91 32 5 5 187 -44 306 -82 107
-34 179 -60 310 -112 147 -58 157 -60 90 -24 -30 17 -52 30 -49 31 16 1 320
-136 432 -195 77 -40 101 -46 42 -10 -22 14 -37 25 -32 25 7 0 160 -76 207
-104 14 -8 64 -37 111 -65 89 -52 105 -59 93 -40 -10 16 25 -4 151 -86 61 -39
117 -72 126 -72 18 0 99 -50 99 -62 0 -6 10 -13 23 -17 12 -4 33 -15 47 -26
14 -10 60 -41 103 -68 42 -28 117 -83 165 -123 49 -40 133 -106 188 -147 54
-40 127 -96 160 -124 34 -28 90 -73 125 -101 62 -49 370 -351 419 -410 14 -17
22 -26 18 -21 -14 18 -8 29 7 16 8 -7 15 -17 15 -23 0 -13 71 -91 138 -149 58
-52 60 -63 3 -22 -21 14 -9 0 27 -34 34 -33 62 -63 62 -67 0 -4 21 -27 47 -51
26 -23 44 -46 40 -50 -4 -4 12 -28 36 -55 98 -110 122 -140 119 -150 -1 -6 2
-8 7 -5 5 4 14 -9 20 -27 6 -18 30 -55 52 -82 76 -92 147 -192 179 -253 17
-33 38 -66 46 -73 8 -6 14 -17 14 -23 0 -7 11 -23 25 -36 14 -13 23 -30 21
-37 -5 -12 64 -146 72 -139 2 2 -1 15 -8 28 -11 22 -10 22 5 3 8 -11 13 -25
10 -33 -2 -7 11 -36 31 -64 20 -28 40 -63 46 -79 5 -16 13 -29 17 -29 7 0 31
-44 31 -56 0 -3 -5 -2 -11 2 -15 9 90 -192 107 -207 8 -6 14 -20 14 -30 0 -9
6 -24 14 -32 8 -8 21 -29 29 -48 8 -19 27 -60 41 -91 31 -70 26 -76 -8 -10
-37 69 -31 46 10 -44 19 -44 45 -99 56 -124 11 -25 28 -63 39 -85 19 -42 103
-264 114 -302 14 -49 -3 -19 -30 52 -16 41 -30 73 -33 71 -2 -2 17 -60 42
-129 78 -214 207 -668 206 -722 -1 -18 -49 147 -50 169 0 5 -2 7 -6 4 -3 -3 4
-43 15 -89 46 -197 63 -286 91 -484 39 -279 53 -483 53 -755 0 -258 -12 -419
-54 -713 -31 -213 -55 -341 -90 -481 -11 -43 -18 -83 -17 -88 2 -5 15 31 28
81 14 50 26 87 28 82 3 -10 -49 -219 -85 -341 -14 -47 -28 -96 -31 -109 -2
-13 -33 -107 -67 -210 -35 -102 -61 -187 -60 -189 2 -2 15 29 31 68 15 38 29
68 31 66 2 -2 -12 -47 -31 -99 -20 -52 -36 -102 -36 -110 0 -8 -7 -17 -15 -21
-8 -3 -15 -14 -15 -24 0 -18 -43 -123 -109 -264 -39 -85 -39 -100 0 -28 35 63
33 52 -7 -38 -18 -43 -30 -59 -35 -50 -6 9 -9 3 -9 -17 -1 -16 -22 -71 -48
-121 -90 -174 -102 -199 -90 -181 33 48 37 48 13 0 -24 -50 -42 -73 -28 -36 4
11 3 14 -6 9 -6 -4 -10 -15 -7 -24 3 -10 -8 -39 -24 -67 -16 -27 -37 -63 -46
-80 -9 -16 -34 -56 -55 -88 -40 -61 -46 -72 -29 -62 14 9 0 -26 -20 -50 -31
-37 -145 -219 -142 -228 1 -5 -2 -6 -7 -3 -5 3 -17 -7 -26 -22 l-18 -27 23 20
23 20 -13 -25 c-18 -36 -41 -60 -51 -54 -5 3 -9 -5 -9 -18 0 -13 -9 -29 -20
-36 -11 -7 -20 -19 -20 -28 0 -9 -11 -25 -25 -35 -16 -13 -22 -26 -18 -37 3
-9 2 -14 -2 -9 -10 9 -47 -22 -39 -34 6 -10 -39 -70 -102 -139 -54 -59 -95
-115 -89 -122 3 -3 -36 -49 -87 -103 -54 -57 -93 -106 -93 -118 0 -11 -7 -22
-15 -25 -13 -5 -13 -3 -1 12 12 14 12 16 -3 10 -10 -4 -15 -13 -12 -20 3 -7
-15 -30 -39 -52 -25 -22 -45 -42 -45 -46 0 -15 -469 -475 -540 -531 -42 -33
-116 -94 -164 -135 -142 -121 -178 -150 -188 -150 -11 0 -100 -67 -133 -100
-12 -11 -28 -20 -37 -20 -9 0 -20 -9 -23 -20 -5 -14 -14 -20 -28 -18 -12 2
-22 -1 -22 -7 -1 -21 -18 -37 -36 -32 -10 3 -25 -3 -35 -14 -9 -10 -26 -21
-38 -25 -11 -3 -30 -15 -41 -25 -31 -30 -127 -92 -144 -93 -23 -2 -95 -42
-110 -60 -8 -9 -19 -16 -27 -16 -7 0 -25 -11 -40 -25 -15 -14 -35 -25 -45 -25
-11 0 -19 -4 -19 -10 0 -5 -22 -21 -50 -35 -56 -28 -73 -32 -44 -10 10 9 -10
1 -45 -17 -107 -55 -116 -61 -124 -75 -4 -7 -18 -13 -31 -13 -13 0 -31 -9 -41
-20 -10 -11 -25 -20 -33 -20 -9 0 -23 -6 -31 -14 -20 -17 -84 -39 -76 -26 4 6
4 10 1 10 -6 0 -236 -98 -258 -110 -35 -20 -124 -50 -144 -50 -12 0 -64 -15
-115 -34 -218 -78 -376 -128 -542 -171 -113 -29 -143 -31 -72 -5 66 24 51 24
-43 1 -136 -35 -360 -76 -628 -115 -239 -36 -931 -44 -1224 -15 -162 17 -573
84 -689 114 -57 14 -105 24 -108 21 -5 -5 97 -36 118 -36 7 0 10 -3 6 -6 -13
-13 -507 132 -699 205 -59 23 -118 41 -131 41 -28 0 -216 74 -318 125 -78 40
-95 44 -59 14 31 -25 -89 36 -231 119 -108 63 -126 71 -114 51 7 -10 -73 30
-150 76 -22 13 -57 33 -77 44 -20 12 -39 25 -43 31 -3 5 -15 10 -25 10 -10 0
-22 5 -26 12 -4 7 -3 8 4 4 7 -4 12 -5 12 -2 0 3 -14 13 -31 22 -18 9 -28 11
-24 4 4 -7 -6 -5 -24 4 -17 9 -30 22 -28 29 1 6 -4 11 -11 9 -7 -1 -43 20 -81
48 -37 27 -89 58 -115 69 -25 11 -57 31 -69 43 -26 26 -44 39 -139 103 -38 24
-68 47 -68 50 0 4 5 3 12 -1 7 -4 8 -3 4 4 -4 6 -13 9 -20 6 -7 -3 -51 30 -98
73 -108 99 -325 283 -333 283 -9 0 -96 84 -213 204 -48 49 -102 103 -120 120
-19 17 -40 43 -48 59 -8 15 -19 27 -24 27 -14 0 -170 159 -170 173 -1 7 -37
53 -81 102 -43 50 -105 124 -136 165 -31 41 -81 102 -110 136 -51 59 -66 83
-41 68 14 -9 -40 66 -60 83 -8 7 -20 21 -26 31 -35 58 -59 92 -65 92 -4 0 -15
14 -25 31 -11 18 -14 29 -7 25 6 -4 11 -3 11 3 0 5 -4 11 -9 13 -14 5 -193
279 -187 285 6 6 -20 53 -105 188 -64 103 -115 200 -100 191 6 -4 -37 87 -95
201 -58 114 -96 197 -85 183 l21 -25 -19 45 c-10 25 -33 77 -51 115 -41 89
-150 361 -150 372 1 4 9 -8 20 -27 29 -53 24 -31 -19 82 -47 126 -100 293
-145 458 -43 160 -52 215 -21 125 30 -85 27 -66 -19 135 -67 291 -110 597
-127 900 -12 220 -7 649 11 835 23 250 80 583 135 800 25 98 28 139 5 70 -7
-20 -14 -35 -16 -33 -1 2 20 80 47 173 28 94 53 180 56 193 3 12 9 25 14 28 5
3 9 18 9 33 0 15 4 31 9 37 5 5 23 47 39 94 17 47 33 94 37 105 l8 20 -17 -20
c-15 -18 -15 -16 1 25 9 25 52 124 96 220 43 96 81 189 83 206 1 17 44 105 93
196 50 90 91 170 91 177 0 14 40 90 80 151 17 25 35 57 41 73 6 15 14 27 18
27 4 0 24 33 45 73 20 40 61 105 91 144 30 39 83 116 119 170 36 54 82 121
101 148 20 28 47 66 59 85 13 19 55 72 92 116 38 45 89 110 114 145 46 65 478
503 656 664 88 81 192 165 287 233 17 13 34 27 35 33 2 5 9 9 16 9 7 0 55 32
105 70 51 39 125 92 164 117 40 25 101 67 137 93 36 27 117 77 181 113 65 36
139 81 166 100 61 43 112 69 138 73 11 1 49 19 85 39 36 20 79 43 95 51 17 8
73 36 125 64 52 27 100 49 105 49 6 0 -3 -7 -18 -15 -16 -9 -27 -18 -24 -20 5
-6 135 55 143 67 3 5 12 9 21 9 9 0 24 6 32 13 9 7 43 23 76 36 33 12 76 31
95 41 45 24 143 61 147 56 2 -2 -29 -18 -69 -35 -114 -48 -72 -37 109 29 90
33 172 60 182 60 9 0 21 4 27 9 16 17 381 127 390 118 3 -3 -27 -15 -67 -26
-39 -12 -69 -24 -67 -26 2 -3 75 15 160 40 346 99 845 165 1383 183 28 1 154
-3 280 -8z"/>
<path d="M9775 15710 c-177 -10 -584 -56 -650 -74 -93 -26 -237 -57 -241 -53
-3 3 25 13 61 22 36 10 63 20 61 22 -5 5 -353 -80 -441 -107 -33 -10 -125 -41
-204 -69 -80 -28 -146 -49 -148 -47 -2 2 16 12 42 21 25 10 44 20 42 22 -5 5
-219 -72 -282 -101 -27 -13 -81 -38 -120 -56 -38 -18 -88 -41 -110 -52 l-40
-19 25 21 c18 15 3 11 -55 -15 -44 -20 -87 -42 -95 -50 -9 -8 -23 -15 -32 -15
-8 0 -25 -9 -38 -20 -13 -11 -27 -20 -33 -20 -5 0 -31 -12 -56 -28 -25 -15
-59 -33 -76 -40 l-30 -13 25 21 25 21 -32 -16 c-18 -8 -86 -50 -150 -93 -156
-102 -147 -96 -139 -83 17 27 -7 12 -190 -115 -50 -35 -97 -70 -104 -79 -7 -8
-16 -12 -21 -9 -5 3 -31 -12 -57 -34 -26 -21 -67 -52 -92 -67 -111 -69 -402
-319 -590 -506 -276 -274 -510 -542 -629 -717 -23 -34 -57 -79 -74 -99 -18
-20 -26 -34 -19 -29 17 10 15 -9 -3 -24 -8 -7 -35 -42 -60 -79 -25 -36 -63
-91 -85 -121 -22 -30 -37 -61 -35 -69 3 -7 -13 -38 -35 -70 -84 -117 -111
-157 -135 -206 -22 -43 -23 -46 -5 -25 14 17 10 2 -15 -47 -19 -40 -40 -73
-45 -73 -6 0 -10 -10 -10 -23 0 -12 -9 -30 -20 -40 -11 -9 -20 -26 -20 -36 0
-11 -5 -23 -10 -26 -13 -8 -91 -167 -86 -173 3 -2 12 10 21 27 28 54 25 33 -4
-31 -16 -35 -33 -62 -39 -61 -5 1 -8 -7 -5 -18 3 -11 -1 -27 -9 -37 -8 -9 -22
-35 -30 -57 -9 -22 -41 -101 -72 -175 -61 -146 -73 -191 -27 -95 16 33 30 57
30 54 1 -3 -17 -54 -40 -114 -52 -137 -89 -256 -145 -465 -45 -168 -57 -239
-24 -140 10 30 18 53 19 50 0 -3 -13 -68 -29 -145 -39 -180 -64 -341 -91 -590
-42 -397 -8 -957 86 -1405 19 -91 38 -176 42 -190 13 -54 -7 -11 -27 55 -30
103 -15 13 21 -125 17 -63 46 -165 65 -226 19 -61 34 -118 34 -126 0 -8 4 -18
9 -24 10 -11 82 -216 77 -221 -1 -2 -14 24 -27 56 -37 96 -34 62 4 -41 42
-111 143 -344 162 -374 7 -11 21 -38 29 -60 15 -37 9 -33 -21 13 -7 10 -2 -4
11 -32 59 -128 88 -184 102 -196 8 -6 14 -21 14 -33 0 -12 9 -27 21 -34 15 -9
19 -20 15 -35 -3 -13 5 -39 21 -67 26 -45 150 -244 181 -290 l16 -25 -23 20
c-24 20 95 -159 183 -275 26 -35 53 -76 59 -90 16 -35 63 -96 119 -154 48 -48
66 -75 28 -41 -11 10 -22 16 -25 13 -3 -2 15 -24 40 -47 25 -23 45 -47 45 -52
0 -6 14 -22 30 -36 17 -13 30 -31 30 -38 0 -15 198 -222 425 -445 232 -227
327 -310 488 -420 43 -30 81 -58 84 -63 4 -6 1 -7 -7 -2 -9 5 -11 4 -6 -3 4
-7 14 -12 23 -12 8 0 44 -25 81 -55 36 -30 70 -51 75 -48 6 3 7 1 3 -5 -7 -12
69 -66 94 -65 8 0 38 -16 65 -37 83 -61 213 -150 220 -150 3 0 -7 12 -22 26
-31 28 -14 23 32 -11 41 -29 284 -179 315 -194 23 -11 24 -11 5 3 -55 41 -58
46 -15 25 25 -12 52 -27 60 -34 17 -15 322 -159 360 -170 24 -7 24 -7 5 9 -11
9 32 -8 95 -38 63 -29 130 -57 148 -60 17 -4 32 -12 32 -17 0 -5 6 -9 14 -9 7
0 62 -18 121 -40 60 -22 110 -38 112 -36 2 2 -16 12 -42 21 -86 33 -36 27 72
-9 92 -30 175 -54 373 -108 71 -19 367 -77 420 -82 30 -3 1 5 -64 19 -121 25
-169 39 -106 30 19 -2 111 -16 203 -30 309 -47 483 -58 797 -51 282 5 407 15
690 54 80 11 165 23 190 26 91 11 -19 -14 -150 -34 -98 -15 -109 -18 -50 -14
41 3 109 12 150 19 184 34 246 47 262 56 10 5 31 9 47 9 16 0 34 7 41 15 7 8
16 12 21 10 10 -7 124 24 274 75 65 22 122 40 125 39 3 0 -17 -12 -45 -25
-116 -57 184 53 350 127 50 23 106 47 125 55 32 13 33 13 16 -1 -11 -8 -17
-15 -14 -15 14 0 134 54 149 67 8 7 22 13 30 13 8 0 19 4 25 10 16 16 205 110
212 106 9 -6 180 87 268 145 101 66 102 67 84 44 -14 -17 -14 -17 5 -8 11 6
47 32 79 57 33 25 65 46 72 46 6 0 14 7 17 15 4 8 21 21 39 28 18 8 88 55 156
106 67 50 126 91 132 91 9 0 123 93 253 207 36 32 96 83 133 113 37 30 132
120 211 200 78 80 169 171 200 202 32 31 58 61 58 67 0 6 33 46 73 89 40 44
86 99 102 124 16 24 52 70 80 102 64 73 199 267 363 521 96 149 103 160 90
152 -9 -6 -11 -3 -7 7 3 9 11 13 17 9 6 -4 7 -1 3 6 -5 7 7 35 29 67 20 31 45
72 57 92 68 120 90 165 80 158 -12 -7 44 120 63 144 7 8 16 26 20 40 4 14 13
32 19 40 12 15 86 174 86 185 0 3 -4 3 -10 0 -12 -7 -3 16 39 105 17 36 31 72
31 81 0 8 4 19 9 25 10 9 29 60 87 228 38 111 42 131 13 71 -28 -59 -23 -30
10 61 23 62 83 274 107 374 23 97 73 357 78 400 5 49 3 47 -13 -25 -26 -112
-25 -81 3 97 48 303 65 586 47 808 -17 207 -39 397 -62 534 -11 65 -18 120
-16 123 3 2 14 -49 26 -114 27 -149 28 -153 30 -129 1 26 -34 236 -65 386 -34
161 -94 395 -138 535 -39 120 -42 150 -6 55 12 -33 24 -59 26 -57 9 9 -106
320 -185 500 -55 127 -65 159 -26 87 13 -25 24 -42 25 -39 0 13 -34 90 -121
267 -50 100 -87 187 -83 194 4 6 3 8 -3 5 -6 -4 -14 0 -17 9 -4 10 -2 13 6 8
7 -4 2 10 -12 32 -13 21 -40 69 -61 106 -20 37 -47 81 -59 99 -13 17 -24 42
-26 55 -2 24 -72 144 -84 144 -4 0 -12 12 -19 26 -6 15 -28 47 -49 72 -20 25
-31 42 -24 38 32 -19 1 29 -138 211 -41 54 -75 103 -75 109 0 9 -56 76 -142
172 -13 13 -20 28 -18 32 3 5 -41 55 -97 112 -57 56 -89 94 -73 84 17 -10 -13
26 -66 80 -52 55 -135 141 -185 193 -86 90 -255 241 -270 241 -3 0 -32 25 -63
55 -78 75 -181 166 -152 132 42 -47 7 -29 -44 23 -28 28 -78 69 -112 92 -35
22 -61 44 -58 48 2 4 -5 16 -18 26 l-22 19 19 -22 c33 -40 6 -25 -93 50 -103
78 -192 137 -207 137 -5 0 -36 18 -69 40 -33 22 -64 40 -69 40 -6 0 -21 11
-35 24 -27 25 -181 112 -181 102 0 -3 18 -15 40 -26 22 -11 40 -23 40 -25 0
-8 -139 66 -255 135 -84 50 -192 103 -165 81 14 -11 29 -21 34 -21 5 0 7 -3 4
-6 -3 -3 -34 9 -69 27 -131 66 -476 205 -486 196 -2 -2 18 -12 44 -22 27 -10
52 -22 58 -27 5 -5 -35 8 -90 28 -55 20 -137 50 -183 65 -119 42 -425 127
-480 134 -37 4 -31 1 28 -15 133 -36 122 -36 -75 0 -86 16 -93 18 -51 19 75 1
52 8 -54 15 -52 4 -194 18 -315 32 -203 23 -558 45 -665 42 -25 -1 -108 -4
-185 -8z m-1625 -2844 c120 -16 329 -57 410 -81 30 -9 97 -27 149 -41 51 -14
112 -33 135 -44 22 -10 95 -42 161 -70 141 -60 152 -65 296 -150 252 -147 503
-359 714 -600 106 -122 250 -321 289 -400 15 -30 34 -62 42 -71 8 -8 14 -23
14 -32 0 -9 6 -20 14 -24 31 -18 202 -435 235 -573 11 -47 27 -114 35 -150 32
-134 57 -342 66 -545 8 -188 16 -259 49 -441 23 -129 135 -359 247 -509 135
-180 373 -369 561 -446 194 -79 283 -104 418 -119 160 -17 339 -10 480 21 150
33 373 129 485 210 41 30 86 62 100 71 61 41 215 205 286 305 50 69 160 279
193 368 82 218 84 656 5 895 -35 108 -150 329 -214 413 -85 112 -248 274 -315
314 -33 20 -69 44 -80 54 -42 37 -177 101 -304 144 -188 64 -286 78 -501 72
-96 -3 -184 -8 -195 -12 -18 -5 -25 4 -53 77 -18 46 -39 97 -47 113 -7 17 -23
57 -35 89 -30 84 -182 384 -240 474 -28 43 -61 97 -75 122 -13 25 -42 68 -62
97 -21 29 -61 85 -90 125 -28 40 -70 96 -92 123 -23 28 -41 53 -41 57 0 18
523 145 693 168 117 15 457 12 589 -5 302 -40 593 -119 833 -226 173 -77 426
-215 492 -268 17 -14 62 -48 100 -76 191 -139 485 -442 603 -620 19 -30 42
-64 51 -77 59 -84 117 -183 168 -287 32 -66 63 -126 67 -133 28 -43 162 -452
184 -558 44 -218 55 -344 54 -625 0 -392 -27 -564 -141 -905 -107 -320 -277
-634 -484 -890 -111 -139 -348 -374 -467 -463 -123 -93 -171 -127 -181 -127
-5 0 -21 -10 -36 -22 -68 -55 -175 -113 -420 -228 -96 -45 -128 -57 -258 -96
-361 -107 -541 -134 -887 -134 -329 0 -534 30 -815 120 -49 15 -121 38 -160
50 -74 23 -77 24 -278 119 -71 34 -131 61 -134 61 -3 0 -18 11 -35 25 -16 14
-35 25 -43 25 -7 0 -18 7 -25 15 -6 8 -42 32 -79 53 -76 44 -269 194 -376 293
-144 133 -285 294 -389 444 -27 39 -57 79 -66 90 -16 18 -77 123 -148 255 -13
25 -28 50 -32 55 -10 12 -100 236 -125 310 -9 27 -20 54 -24 60 -18 22 -82
287 -102 415 -11 74 -24 232 -29 350 -10 243 -14 277 -42 410 -43 207 -103
353 -214 519 -86 130 -94 141 -104 141 -5 0 -17 13 -26 30 -42 71 -288 259
-434 331 -89 44 -297 109 -405 125 -125 20 -423 13 -530 -11 -73 -16 -294 -94
-356 -126 -69 -35 -235 -153 -312 -223 -85 -78 -201 -216 -259 -310 -53 -85
-133 -266 -161 -366 -45 -155 -60 -399 -37 -590 46 -376 279 -752 605 -977
160 -111 412 -218 575 -244 89 -14 324 -17 430 -6 l75 9 33 -89 c76 -201 100
-256 180 -413 97 -188 246 -440 306 -517 23 -28 52 -70 66 -94 14 -23 31 -48
39 -56 31 -32 81 -95 81 -103 0 -18 -363 -120 -530 -149 -255 -44 -688 -42
-925 5 -172 34 -513 134 -605 176 -30 14 -107 49 -170 78 -63 29 -128 62 -145
75 -16 12 -46 30 -65 40 -19 10 -50 31 -68 46 -18 16 -41 29 -51 29 -10 0 -21
7 -25 15 -3 8 -10 15 -16 15 -15 0 -216 154 -285 219 -294 274 -481 524 -660
879 -113 226 -214 533 -261 797 -27 156 -38 437 -25 660 16 286 43 419 150
742 94 284 236 551 438 821 113 152 382 421 522 522 57 41 118 87 136 103 18
15 38 27 46 27 7 0 20 7 29 15 55 50 400 226 495 252 11 3 26 11 33 16 16 13
103 45 152 57 56 14 341 80 391 91 177 39 587 52 789 25z"/>
</g>
</svg>
