<?xml version="1.0" standalone="no"?>
<!DOCTYPE svg PUBLIC "-//W3C//DTD SVG 20010904//EN"
        "http://www.w3.org/TR/2001/REC-SVG-20010904/DTD/svg10.dtd">
<svg version="1.0" xmlns="http://www.w3.org/2000/svg"
     width="602.000000pt" height="602.000000pt" viewBox="0 0 602.000000 602.000000"
     preserveAspectRatio="xMidYMid meet">
    <metadata>
        Created by potrace 1.14, written by Peter Selinger 2001-2017
    </metadata>
    <g transform="translate(0.000000,602.000000) scale(0.100000,-0.100000)"
       fill="#000000" stroke="none">
        <path d="M2730 5987 c-3 -3 -36 -8 -74 -11 -38 -3 -78 -8 -90 -11 -11 -2 -37
-7 -56 -9 -19 -3 -59 -10 -88 -17 -30 -6 -59 -12 -65 -13 -19 -4 -98 -25 -157
-43 -81 -23 -297 -102 -358 -129 -29 -13 -55 -24 -57 -24 -23 0 -388 -198
-405 -220 -3 -3 -23 -17 -45 -30 -22 -13 -44 -28 -50 -32 -5 -4 -44 -33 -85
-65 -419 -316 -809 -823 -995 -1292 -20 -52 -38 -99 -39 -105 -1 -6 -17 -56
-35 -111 -29 -89 -67 -235 -76 -290 -2 -11 -11 -63 -19 -115 -24 -148 -31
-248 -31 -480 0 -250 9 -358 42 -520 8 -41 17 -86 19 -100 3 -14 9 -38 14 -55
5 -16 25 -83 44 -147 19 -65 40 -126 46 -138 6 -11 8 -20 6 -20 -3 0 9 -33 25
-72 17 -40 36 -86 42 -103 7 -16 31 -68 54 -116 24 -48 43 -92 43 -98 0 -6 5
-11 10 -11 6 0 10 -5 10 -11 0 -14 130 -233 142 -237 4 -2 8 -8 8 -13 0 -16
175 -253 257 -346 210 -242 498 -461 813 -619 324 -163 816 -314 1135 -350 39
-5 162 -8 275 -9 211 0 311 7 448 30 17 3 44 7 60 9 46 7 203 46 277 68 39 12
75 22 80 24 33 6 248 79 349 118 245 95 519 254 704 410 210 176 279 250 514
550 13 16 26 38 30 48 4 10 12 18 18 18 5 0 10 5 10 11 0 5 18 37 40 69 22 32
40 61 40 64 0 3 13 24 29 48 39 58 152 276 196 379 20 46 40 93 45 104 42 94
128 383 144 485 3 19 8 46 11 60 4 25 8 49 22 165 4 33 7 159 8 280 0 242 -5
301 -41 505 -8 47 -17 99 -20 115 -3 17 -7 37 -10 45 -3 8 -8 26 -10 40 -15
83 -92 333 -134 435 -7 17 -16 39 -21 50 -24 60 -127 269 -161 330 -187 325
-447 639 -683 825 -271 214 -594 392 -913 504 -86 31 -316 88 -417 105 -79 13
-109 18 -145 25 -32 5 -101 15 -165 21 -27 3 -68 8 -90 11 -54 7 -470 16 -475
11z m513 -101 c15 -2 60 -7 100 -11 40 -4 81 -9 92 -11 11 -2 40 -6 65 -9 104
-12 314 -54 395 -79 6 -1 30 -8 55 -15 157 -43 424 -161 589 -261 115 -69 285
-190 344 -243 20 -19 37 -33 37 -31 0 6 141 -129 205 -196 194 -203 408 -502
521 -730 30 -60 103 -232 108 -255 1 -5 19 -62 40 -125 21 -63 39 -122 41
-130 2 -8 11 -44 20 -80 9 -36 19 -76 21 -90 3 -14 9 -50 14 -80 26 -148 33
-263 33 -570 0 -146 -2 -299 -6 -340 -11 -118 -19 -185 -23 -191 -1 -3 -6 -28
-10 -55 -3 -27 -8 -52 -10 -55 -2 -3 -6 -20 -9 -37 -7 -43 -85 -279 -123 -372
-39 -97 -104 -225 -162 -320 -51 -83 -142 -222 -150 -230 -3 -3 -51 -66 -107
-140 -166 -221 -300 -361 -503 -525 -87 -70 -276 -196 -360 -241 -30 -16 -56
-32 -58 -36 -2 -5 -8 -8 -12 -8 -5 0 -42 -15 -82 -34 -219 -103 -597 -217
-798 -241 -25 -3 -58 -8 -75 -10 -171 -24 -628 -24 -824 1 -46 5 -233 39 -266
48 -21 6 -86 23 -120 32 -29 8 -38 10 -55 16 -8 3 -51 18 -95 33 -44 15 -87
29 -95 33 -8 3 -17 6 -20 7 -3 1 -18 7 -35 14 -16 8 -39 17 -50 21 -33 13
-250 115 -255 120 -3 3 -30 18 -60 34 -81 42 -322 204 -420 282 -168 134 -337
316 -528 569 -4 6 -23 35 -42 65 -19 30 -37 57 -40 60 -28 25 -232 428 -224
442 3 4 2 8 -3 8 -4 0 -13 15 -19 33 -6 17 -32 93 -57 168 -42 123 -90 291
-102 358 -3 14 -7 35 -9 46 -2 11 -7 40 -11 65 -3 25 -9 59 -11 75 -17 104
-26 555 -11 555 4 0 5 4 2 10 -3 5 -1 45 4 87 6 43 13 101 16 128 4 28 8 58
11 67 5 16 10 41 19 88 2 14 12 52 21 85 8 33 17 67 19 75 8 36 96 292 125
365 39 98 141 309 152 313 4 2 8 8 8 13 0 21 163 263 247 368 200 249 403 437
663 612 123 83 153 101 280 165 130 65 195 94 212 94 8 0 18 4 23 9 12 11 278
97 325 105 19 3 45 8 58 11 53 12 68 15 92 20 40 7 94 15 131 20 19 2 52 6 74
9 87 11 133 16 210 22 44 3 81 7 83 9 5 4 350 -4 385 -9z"/>
        <path d="M2839 5856 c-2 -2 -40 -6 -84 -10 -44 -4 -93 -9 -110 -11 -37 -6 -85
-12 -150 -20 -66 -8 -169 -26 -237 -41 -15 -3 -30 -5 -33 -5 -2 0 -23 -6 -45
-14 -22 -8 -41 -14 -43 -13 -1 0 -29 -7 -62 -17 -33 -10 -64 -19 -70 -21 -29
-6 -248 -100 -332 -143 -127 -63 -142 -72 -180 -98 -17 -13 -34 -23 -37 -23
-8 0 -131 -84 -134 -92 -2 -5 -10 -8 -17 -8 -7 0 -15 -3 -17 -7 -1 -5 -32 -30
-68 -58 -36 -27 -81 -63 -100 -80 -46 -39 -265 -259 -309 -310 -88 -101 -291
-391 -291 -415 0 -6 -4 -10 -9 -10 -5 0 -11 -8 -14 -17 -3 -10 -25 -52 -48
-93 -82 -148 -222 -511 -245 -636 -3 -21 -10 -46 -14 -54 -5 -8 -11 -32 -14
-54 -4 -21 -8 -42 -11 -46 -5 -8 -13 -54 -20 -120 -2 -19 -7 -51 -10 -70 -25
-161 -25 -590 0 -690 2 -8 6 -42 10 -75 10 -90 69 -331 115 -465 14 -42 58
-163 71 -195 7 -16 13 -35 14 -40 5 -23 112 -235 153 -305 100 -168 254 -385
347 -486 66 -73 166 -172 226 -224 41 -36 76 -67 79 -70 18 -18 180 -137 255
-187 100 -67 254 -153 360 -203 85 -39 289 -120 304 -120 6 0 19 -4 29 -10 32
-18 238 -74 352 -95 153 -29 138 -27 275 -41 150 -15 640 -8 697 11 7 2 36 6
63 9 103 12 302 57 444 100 119 37 328 118 379 147 18 10 38 19 43 19 32 0
377 227 499 328 68 57 261 250 315 315 22 27 45 54 50 60 6 7 39 50 73 97 35
47 70 94 79 104 32 40 183 266 183 275 0 5 6 16 14 24 12 12 123 235 146 292
4 11 15 38 24 60 29 73 75 229 100 340 24 108 28 132 43 265 9 82 9 643 -1
730 -4 36 -11 91 -17 123 -6 33 -12 73 -14 90 -2 18 -8 48 -13 67 -5 19 -10
40 -11 45 -11 54 -30 133 -51 210 -7 29 -68 198 -93 260 -31 77 -149 300 -207
390 -63 98 -224 316 -284 384 -132 149 -298 300 -476 430 -75 55 -334 215
-349 216 -3 1 -17 7 -31 15 -14 8 -29 15 -35 16 -5 2 -53 22 -105 44 -52 23
-99 43 -105 45 -5 1 -17 5 -25 8 -49 19 -243 75 -289 83 -14 3 -42 9 -61 14
-19 4 -69 14 -110 20 -41 6 -88 14 -105 17 -16 2 -46 6 -65 8 -19 2 -60 6 -90
9 -110 13 -120 13 -125 6 -2 -4 2 -38 10 -76 9 -38 24 -111 35 -162 11 -52 22
-97 24 -100 2 -4 7 -24 10 -44 3 -20 15 -77 25 -125 11 -48 22 -99 25 -113 3
-14 7 -34 10 -45 12 -51 25 -112 30 -135 14 -70 55 -257 60 -270 3 -8 7 -31
10 -51 3 -20 8 -42 10 -50 3 -8 8 -26 11 -41 6 -35 9 -50 35 -168 12 -52 28
-126 36 -165 8 -38 19 -86 24 -105 5 -19 12 -53 16 -75 3 -22 8 -43 9 -46 2
-3 13 -50 25 -105 12 -54 23 -108 26 -119 2 -11 7 -33 9 -50 3 -16 8 -38 11
-47 3 -9 7 -25 9 -35 2 -10 13 -63 25 -118 12 -55 23 -111 26 -125 3 -14 9
-41 14 -60 6 -19 10 -46 10 -59 0 -23 0 -23 -22 5 -38 49 -41 52 -108 119 -79
79 -126 120 -162 142 -16 10 -28 21 -28 25 0 4 -5 8 -11 8 -21 0 -68 40 -67
58 0 9 -2 40 -6 67 -3 28 -8 73 -11 100 -3 28 -7 66 -10 85 -2 19 -7 60 -10
90 -3 30 -8 66 -10 80 -2 14 -7 57 -11 95 -3 39 -8 79 -10 90 -3 11 -7 43 -9
70 -8 76 -16 147 -21 177 -5 32 -12 97 -19 184 -3 33 -8 71 -10 85 -3 13 -8
47 -10 74 -7 69 -14 128 -20 167 -2 18 -7 58 -10 88 -5 55 -9 83 -19 173 -6
51 -12 101 -21 187 -3 30 -8 69 -11 85 -2 17 -7 53 -10 80 -2 28 -7 73 -10
100 -3 28 -6 56 -6 63 -1 6 -6 12 -11 12 -9 0 -5 -113 8 -225 6 -46 14 -136
20 -215 2 -30 6 -73 9 -95 3 -22 8 -71 11 -110 3 -38 8 -89 11 -112 2 -23 7
-68 10 -100 14 -162 25 -269 30 -318 5 -42 10 -91 17 -185 5 -50 10 -105 23
-217 2 -23 7 -68 9 -100 3 -32 7 -76 9 -98 3 -22 8 -71 11 -110 4 -38 9 -86
11 -105 2 -19 7 -66 10 -103 6 -69 6 -69 -18 -61 -12 4 -47 12 -77 18 -42 9
-55 16 -57 31 -4 27 -16 245 -29 535 -3 74 -7 173 -10 220 -2 47 -7 141 -10
210 -6 142 -12 261 -20 435 -4 66 -8 163 -10 215 -11 286 -16 374 -20 379 -3
2 -6 -13 -6 -35 -1 -21 -3 -59 -4 -84 -2 -25 -6 -115 -9 -200 -9 -193 -15
-321 -31 -645 -2 -44 -6 -136 -9 -205 -4 -69 -8 -168 -11 -220 -3 -52 -7 -135
-10 -185 -2 -49 -7 -148 -11 -220 -3 -71 -7 -149 -8 -173 -3 -51 -9 -58 -61
-65 -22 -3 -53 -10 -68 -16 -26 -10 -31 -6 -29 19 3 33 15 164 18 195 6 64 13
135 19 200 5 58 8 92 20 200 3 28 7 75 10 105 3 30 7 75 10 100 8 74 14 141
20 210 3 36 7 79 9 95 2 17 7 68 11 115 4 47 8 92 10 100 2 8 6 53 10 99 4 47
8 92 10 100 1 9 6 52 10 96 16 186 23 259 30 315 3 19 7 70 9 113 3 43 8 82
11 87 3 6 -1 10 -9 10 -10 0 -16 -9 -17 -22 0 -13 -2 -36 -5 -53 -4 -30 -12
-107 -19 -175 -2 -19 -6 -51 -9 -70 -3 -19 -8 -60 -11 -90 -13 -119 -16 -146
-20 -170 -2 -14 -7 -52 -10 -85 -2 -33 -7 -71 -10 -85 -2 -14 -7 -48 -9 -75
-7 -77 -16 -150 -32 -278 -8 -65 -17 -139 -19 -165 -6 -63 -13 -126 -20 -187
-3 -27 -8 -68 -11 -90 -2 -22 -7 -56 -9 -75 -3 -19 -7 -60 -10 -90 -3 -30 -7
-71 -10 -90 -3 -19 -7 -55 -10 -80 -3 -25 -7 -61 -10 -80 -5 -45 -14 -123 -20
-180 -3 -25 -9 -46 -13 -48 -53 -17 -290 -223 -344 -298 -31 -44 -56 -59 -43
-26 4 9 9 28 11 42 8 47 16 82 44 210 11 52 22 104 24 115 2 11 23 106 46 210
23 105 44 199 46 210 2 11 6 30 8 43 3 12 7 25 9 30 3 4 8 28 11 55 4 26 11
60 17 75 6 15 10 28 9 30 -1 1 1 15 4 30 12 51 17 77 22 102 3 14 14 63 24
110 11 47 22 96 24 110 3 14 7 34 10 45 5 19 45 202 51 235 2 8 4 15 5 15 1 0
3 11 5 25 2 14 16 77 30 140 15 63 29 129 31 145 3 17 12 55 19 85 8 31 17 73
21 94 3 22 9 49 14 60 4 12 8 24 8 29 1 6 15 78 27 132 3 18 18 90 21 107 3
16 -8 32 -17 24z m-139 -135 c0 -8 -14 -83 -24 -126 -2 -11 -12 -56 -21 -100
-9 -44 -18 -87 -20 -95 -2 -8 -9 -37 -15 -65 -6 -27 -14 -61 -16 -75 -3 -14
-11 -53 -19 -88 -8 -34 -17 -77 -20 -95 -4 -17 -10 -50 -16 -72 -9 -39 -14
-61 -23 -107 -3 -13 -7 -32 -10 -43 -2 -11 -14 -63 -25 -115 -11 -52 -27 -124
-35 -160 -30 -136 -65 -296 -69 -320 -3 -14 -10 -43 -15 -65 -6 -22 -13 -53
-16 -70 -3 -16 -7 -39 -10 -50 -2 -11 -14 -65 -26 -120 -12 -55 -23 -104 -25
-110 -2 -11 -18 -86 -20 -95 -1 -3 -7 -31 -15 -62 l-13 -57 -51 4 c-28 2 -62
6 -76 9 -14 2 -47 7 -75 10 -27 3 -61 8 -75 11 -27 5 -81 13 -145 21 -22 3
-47 7 -55 9 -8 3 -32 7 -54 11 -21 3 -48 8 -60 10 -26 5 -133 25 -166 30 -14
3 -34 8 -45 11 -11 4 -29 7 -40 9 -158 20 -533 130 -692 204 -24 11 -45 20
-48 20 -2 0 -34 13 -70 30 -36 17 -70 30 -75 30 -5 0 -18 10 -30 22 -25 27
-24 31 51 183 62 126 70 140 106 192 13 17 23 34 23 37 0 15 149 219 238 326
322 387 781 695 1227 821 39 11 79 22 90 24 11 2 62 13 113 25 51 11 97 18
102 15 5 -3 11 -1 15 5 4 6 9 9 13 7 4 -2 43 2 87 8 98 16 145 18 145 6z m781
-11 c30 -5 70 -12 89 -15 19 -3 46 -7 60 -10 14 -3 41 -7 60 -10 195 -31 532
-159 730 -278 373 -223 660 -502 901 -875 37 -59 72 -112 76 -118 25 -32 171
-321 178 -349 1 -5 5 -17 8 -25 28 -67 28 -66 -16 -81 -23 -8 -44 -14 -47 -15
-3 0 -16 -5 -30 -11 -106 -44 -489 -165 -568 -179 -15 -3 -46 -9 -70 -15 -23
-5 -59 -12 -78 -15 -35 -5 -47 -7 -104 -18 -14 -3 -43 -8 -65 -11 -22 -3 -53
-7 -70 -10 -55 -9 -101 -14 -161 -20 -32 -4 -77 -9 -99 -12 -22 -3 -56 -6 -75
-8 -42 -4 -101 -11 -190 -21 -36 -4 -94 -8 -129 -8 l-64 -1 -14 65 c-7 36 -15
75 -17 86 -2 12 -16 76 -30 141 -15 66 -28 128 -30 139 -3 10 -10 42 -16 69
-6 28 -13 61 -15 75 -2 14 -6 34 -9 45 -13 57 -95 437 -102 475 -3 14 -16 77
-30 140 -14 63 -27 124 -29 135 -3 20 -33 161 -42 200 -2 11 -11 49 -18 85 -8
36 -17 76 -19 90 -3 14 -18 81 -32 150 -14 69 -28 134 -31 145 -16 73 -16 75
15 75 15 0 53 -4 83 -10z m-261 -2103 c59 -15 83 -24 144 -55 153 -80 330
-323 362 -497 23 -127 -9 -284 -64 -314 -17 -9 -72 -7 -142 5 -28 4 -51 -2
-118 -36 -135 -68 -250 -198 -267 -302 -5 -28 -13 -87 -20 -130 -2 -18 -7 -58
-10 -88 -3 -30 -8 -71 -10 -90 -8 -52 -9 -238 -1 -290 10 -77 19 -119 41 -210
9 -36 19 -76 21 -89 3 -13 6 -28 7 -34 1 -7 -32 -12 -93 -13 -52 -2 -141 -4
-197 -5 -57 -2 -105 0 -108 3 -3 3 6 57 20 119 14 63 28 124 30 136 19 84 97
310 156 456 82 198 94 267 59 344 -28 64 -68 84 -155 79 -103 -7 -355 -97
-355 -126 0 -14 -57 -31 -83 -24 -65 16 -133 161 -155 329 -35 265 98 536 341
692 109 71 256 129 352 140 28 3 52 7 54 9 4 4 170 -4 191 -9z m-971 -1072
c109 -139 140 -184 135 -199 -10 -31 -157 -248 -215 -319 -131 -158 -298 -334
-441 -463 l-56 -51 -103 3 c-57 2 -193 5 -302 8 -175 4 -222 8 -206 19 59 39
451 420 584 567 103 115 185 219 235 300 53 85 132 240 163 320 l17 44 24 -24
c13 -14 87 -106 165 -205z m1670 193 c24 -64 151 -314 171 -336 11 -11 20 -25
20 -30 0 -4 8 -17 18 -28 10 -10 29 -35 42 -54 13 -19 29 -40 35 -46 5 -6 39
-44 75 -85 159 -179 425 -445 600 -598 l35 -31 -30 1 c-16 1 -157 -2 -313 -6
l-282 -7 -53 49 c-78 71 -287 282 -332 334 -22 25 -58 67 -80 94 -22 26 -45
53 -51 59 -20 21 -142 201 -173 257 -31 55 -31 55 -11 80 10 13 65 83 121 154
56 72 109 137 118 147 9 9 27 30 40 47 13 17 27 31 31 31 4 0 13 -15 19 -32z
m-1183 -375 c16 -10 20 -22 18 -51 -1 -20 -5 -109 -9 -197 -3 -88 -8 -194 -10
-235 -3 -41 -7 -133 -10 -204 -3 -71 -10 -134 -15 -141 -5 -6 -20 -11 -32 -9
-13 1 -42 3 -65 3 l-41 1 2 175 c1 120 -2 171 -9 165 -5 -6 -66 -86 -135 -178
l-126 -167 -59 1 c-33 1 -93 2 -134 3 l-73 1 18 28 c10 15 24 33 32 41 8 8 40
49 71 90 31 42 58 78 61 81 7 6 93 127 137 193 35 52 114 206 127 247 26 82
53 195 55 227 1 12 151 -44 197 -74z m690 60 c3 -16 8 -34 10 -42 3 -8 7 -30
10 -50 8 -45 50 -162 82 -226 41 -82 147 -245 219 -335 89 -113 164 -213 166
-222 2 -13 -19 -15 -161 -19 -82 -2 -94 0 -106 17 -20 28 -152 206 -170 229
-9 11 -30 39 -47 63 -17 23 -35 42 -40 42 -6 0 -8 -4 -5 -9 7 -11 10 -317 3
-328 -7 -11 -137 -17 -138 -6 -7 59 -11 136 -34 680 l-6 142 58 27 c105 48
138 63 145 63 4 1 10 -11 14 -26z m-735 -1158 c33 -10 59 -35 59 -56 0 -32
-20 -31 -53 3 -30 32 -35 33 -80 28 -50 -6 -71 -21 -81 -57 -9 -28 21 -56 77
-72 74 -22 148 -61 156 -83 18 -48 -4 -105 -49 -132 -76 -44 -184 -15 -223 60
-14 28 -15 34 -2 44 16 14 35 5 35 -16 0 -57 132 -93 180 -49 23 21 27 77 6
94 -7 6 -44 22 -82 35 -38 13 -81 29 -96 36 -72 33 -52 147 30 170 30 8 87 6
123 -5z m769 -12 c0 -15 -6 -23 -17 -24 -10 0 -35 -1 -56 -2 -20 -1 -37 1 -37
5 0 4 -7 5 -16 1 -9 -3 -28 -6 -42 -7 -25 -1 -27 -4 -28 -53 -1 -29 1 -53 5
-54 3 0 44 -2 91 -5 105 -5 114 -8 101 -32 -9 -16 -21 -18 -104 -16 l-94 2 1
-66 1 -67 90 -2 c105 -3 114 -6 111 -30 -3 -16 -15 -18 -115 -18 -62 0 -117 3
-123 6 -7 4 -11 72 -12 189 -1 145 2 183 13 189 7 5 62 8 122 8 107 -1 109 -1
109 -24z m-1409 -24 c0 -10 1 -53 1 -94 0 -177 1 -173 -36 -208 -18 -18 -49
-37 -67 -43 -67 -20 -162 16 -187 71 -6 13 -11 68 -12 122 -2 174 -2 173 20
173 11 0 20 -3 21 -7 0 -5 1 -65 2 -136 3 -127 3 -128 32 -157 28 -27 56 -36
107 -31 9 0 29 14 45 30 29 28 29 30 31 162 2 73 5 136 8 140 8 14 34 -2 35
-22z m1875 14 c3 -10 10 -27 15 -38 4 -11 25 -60 45 -110 20 -49 39 -94 41
-99 7 -10 21 21 70 154 32 86 43 106 61 108 12 2 22 0 22 -5 0 -12 -47 -143
-54 -150 -3 -4 -6 -12 -6 -19 0 -26 -73 -184 -85 -184 -7 0 -19 10 -27 23 -20
32 -128 303 -128 322 0 21 39 19 46 -2z"/>
        <path d="M2290 5390 c-7 -16 -18 -30 -26 -30 -25 0 -25 -20 0 -30 14 -5 31
-18 38 -30 15 -23 28 -26 28 -6 0 8 12 24 26 35 17 13 21 21 12 21 -15 0 -66
48 -60 57 2 2 2 7 -1 9 -2 3 -10 -9 -17 -26z"/>
        <path d="M2357 5229 c-15 -17 -15 -19 6 -34 19 -13 22 -13 30 0 11 20 10 23
-6 40 -12 11 -16 11 -30 -6z"/>
        <path d="M1910 5151 c0 -25 6 -27 13 -6 4 8 2 17 -3 20 -6 4 -10 -3 -10 -14z"/>
        <path d="M1244 4883 c4 -8 2 -13 -5 -13 -10 0 -10 -3 -1 -12 8 -8 15 -9 22 -2
8 8 6 15 -6 25 -12 9 -15 10 -10 2z"/>
        <path d="M1365 4660 c3 -5 8 -10 11 -10 2 0 4 5 4 10 0 6 -5 10 -11 10 -5 0
-7 -4 -4 -10z"/>
        <path d="M1165 4630 c-3 -5 -1 -10 4 -10 6 0 11 5 11 10 0 6 -2 10 -4 10 -3 0
-8 -4 -11 -10z"/>
        <path d="M1114 4199 c-17 -18 -16 -20 3 -39 20 -18 21 -18 38 0 16 17 15 20
-3 38 -20 20 -21 20 -38 1z"/>
        <path d="M1465 4160 c3 -5 8 -10 11 -10 2 0 4 5 4 10 0 6 -5 10 -11 10 -5 0
-7 -4 -4 -10z"/>
        <path d="M4096 5151 c-4 -5 -2 -12 3 -15 5 -4 12 -2 15 3 4 5 2 12 -3 15 -5 4
-12 2 -15 -3z"/>
        <path d="M4766 4873 c-11 -11 -6 -23 9 -23 8 0 15 4 15 9 0 13 -16 22 -24 14z"/>
        <path d="M3815 4725 c-5 -11 -20 -30 -34 -41 l-25 -21 22 -7 c12 -4 30 -18 41
-32 19 -24 20 -24 26 -4 3 11 15 25 26 30 10 6 19 15 19 21 0 6 -4 8 -9 5 -9
-6 -46 31 -54 54 -4 12 -6 11 -12 -5z"/>
        <path d="M4545 4160 c-3 -5 -1 -10 4 -10 6 0 11 5 11 10 0 6 -2 10 -4 10 -3 0
-8 -4 -11 -10z"/>
        <path d="M4921 4116 c-11 -13 -10 -17 3 -22 22 -8 30 1 19 21 -9 15 -11 15
-22 1z"/>
        <path d="M3037 2874 c-1 -1 -20 -5 -41 -8 -22 -4 -41 -8 -43 -10 -2 -1 8 -16
23 -32 32 -37 65 -101 94 -184 13 -36 27 -69 31 -74 14 -16 49 82 49 137 0 29
-10 80 -22 115 -21 61 -23 62 -55 60 -19 -1 -35 -3 -36 -4z"/>
        <path d="M2810 2823 c-34 -13 -73 -48 -105 -96 -39 -58 -45 -83 -17 -69 14 7
116 25 217 38 29 3 29 3 44 13 11 7 10 14 -5 37 -41 65 -90 93 -134 77z"/>
    </g>
</svg>
